<?xml version="1.0" encoding="UTF-8" standalone="no"?>
<svg id="svg2" xmlns:rdf="http://www.w3.org/1999/02/22-rdf-syntax-ns#" xmlns="http://www.w3.org/2000/svg" height="100%" width="100%" version="1.1" stroke-miterlimit="10" xmlns:cc="http://creativecommons.org/ns#" xmlns:dc="http://purl.org/dc/elements/1.1/" viewBox="0 0 503.0121 241.04841" fill="none">
 <metadata id="metadata403">
  <rdf:RDF>
   <cc:Work rdf:about="">
    <dc:format>image/svg+xml</dc:format>
    <dc:type rdf:resource="http://purl.org/dc/dcmitype/StillImage"/>
    <dc:title/>
   </cc:Work>
  </rdf:RDF>
 </metadata>
 <defs id="defs401"></defs>
 <clipPath id="g1bc49272f1_0_65.0">
  <path id="path5" clip-rule="nonzero" d="M0,0,960,0,960,540,0,540,0,0z"/>
 </clipPath>
 <path id="path125" fill-rule="evenodd" fill="#EEE" d="m23.487,15.4,31.559,5.0079-5.7637,25.417l-31.559-5.007z"/>
 <path id="path127" stroke-linejoin="round" d="m23.487,15.4,31.559,5.0079-5.7637,25.417l-31.559-5.007z" stroke="#595959" stroke-linecap="butt" stroke-width="1"/>
 <path id="path129" fill-rule="evenodd" fill="#EEE" d="m17.746,40.817,31.559,5.0079-5.7638,25.417l-31.559-5.008z"/>
 <path id="path131" stroke-linejoin="round" d="m17.746,40.817,31.559,5.0079-5.7638,25.417l-31.559-5.008z" stroke="#595959" stroke-linecap="butt" stroke-width="1"/>
 <path id="path133" fill-rule="evenodd" fill="#EEE" d="m55.038,20.401,31.559,5.0079-5.7638,25.417-31.559-5.0079z"/>
 <path id="path135" stroke-linejoin="round" d="m55.038,20.401,31.559,5.0079-5.7638,25.417-31.559-5.0079z" stroke="#595959" stroke-linecap="butt" stroke-width="1"/>
 <path id="path137" fill-rule="evenodd" fill="#EEE" d="m49.297,45.817,31.559,5.0079-5.7638,25.417-31.559-5.0079z"/>
 <path id="path139" stroke-linejoin="round" d="m49.297,45.817,31.559,5.0079-5.7638,25.417-31.559-5.0079z" stroke="#595959" stroke-linecap="butt" stroke-width="1"/>
 <path id="path141" fill-rule="evenodd" fill="#EEE" d="m12.005,66.231,31.559,5.0079-5.7638,25.417l-31.559-5.008z"/>
 <path id="path143" stroke-linejoin="round" d="m12.005,66.231,31.559,5.0079-5.7638,25.417l-31.559-5.008z" stroke="#595959" stroke-linecap="butt" stroke-width="1"/>
 <path id="path145" fill-rule="evenodd" fill="#EEE" d="m6.2638,91.647,31.559,5.0079-5.7637,25.417l-31.559-5.01z"/>
 <path id="path147" stroke-linejoin="round" d="m6.2638,91.647,31.559,5.0079-5.7637,25.417l-31.559-5.01z" stroke="#595959" stroke-linecap="butt" stroke-width="1"/>
 <path id="path149" fill-rule="evenodd" fill="#EEE" d="m43.556,71.232,31.559,5.0079-5.7637,25.417-31.559-5.0079z"/>
 <path id="path151" stroke-linejoin="round" d="m43.556,71.232,31.559,5.0079-5.7637,25.417-31.559-5.0079z" stroke="#595959" stroke-linecap="butt" stroke-width="1"/>
 <path id="path153" fill-rule="evenodd" fill="#EEE" d="m37.815,96.648,31.559,5.0079-5.7638,25.417-31.559-5.0079z"/>
 <path id="path155" stroke-linejoin="round" d="m37.815,96.648,31.559,5.0079-5.7638,25.417-31.559-5.0079z" stroke="#595959" stroke-linecap="butt" stroke-width="1"/>
 <path id="path157" fill-rule="evenodd" fill="#EEE" d="M86.589,25.402,118.15,30.41,112.38,55.827,80.825,50.819z"/>
 <path id="path159" stroke-linejoin="round" d="M86.589,25.402,118.15,30.41,112.38,55.827,80.825,50.819z" stroke="#595959" stroke-linecap="butt" stroke-width="1"/>
 <path id="path161" fill-rule="evenodd" fill="#EEE" d="M80.848,50.818,112.41,55.826,106.64,81.243,75.084,76.235z"/>
 <path id="path163" stroke-linejoin="round" d="M80.848,50.818,112.41,55.826,106.64,81.243,75.084,76.235z" stroke="#595959" stroke-linecap="butt" stroke-width="1"/>
 <path id="path165" fill-rule="evenodd" fill="#EEE" d="m118.14,30.403,31.559,5.0079-5.7638,25.417-31.559-5.0079z"/>
 <path id="path167" stroke-linejoin="round" d="m118.14,30.403,31.559,5.0079-5.7638,25.417-31.559-5.0079z" stroke="#595959" stroke-linecap="butt" stroke-width="1"/>
 <path id="path169" fill-rule="evenodd" fill="#EEE" d="m112.4,55.819,31.559,5.0079-5.7638,25.417-31.559-5.0079z"/>
 <path id="path171" stroke-linejoin="round" d="m112.4,55.819,31.559,5.0079-5.7638,25.417-31.559-5.0079z" stroke="#595959" stroke-linecap="butt" stroke-width="1"/>
 <path id="path173" fill-rule="evenodd" fill="#EEE" d="m75.107,76.232,31.559,5.0079-5.7638,25.417-31.559-5.0079z"/>
 <path id="path175" stroke-linejoin="round" d="m75.107,76.232,31.559,5.0079-5.7638,25.417-31.559-5.0079z" stroke="#595959" stroke-linecap="butt" stroke-width="1"/>
 <path id="path177" fill-rule="evenodd" fill="#EEE" d="m69.366,101.65,31.559,5.0079-5.7638,25.417-31.559-5.0079z"/>
 <path id="path179" stroke-linejoin="round" d="m69.366,101.65,31.559,5.0079-5.7638,25.417-31.559-5.0079z" stroke="#595959" stroke-linecap="butt" stroke-width="1"/>
 <path id="path181" fill-rule="evenodd" fill="#EEE" d="m106.66,81.233,31.559,5.0079-5.7638,25.417-31.559-5.0079z"/>
 <path id="path183" stroke-linejoin="round" d="m106.66,81.233,31.559,5.0079-5.7638,25.417-31.559-5.0079z" stroke="#595959" stroke-linecap="butt" stroke-width="1"/>
 <path id="path185" fill-rule="evenodd" fill="#EEE" d="m100.92,106.65,31.559,5.0079-5.7638,25.417-31.559-5.0079z"/>
 <path id="path187" stroke-linejoin="round" d="m100.92,106.65,31.559,5.0079-5.7638,25.417-31.559-5.0079z" stroke="#595959" stroke-linecap="butt" stroke-width="1"/>
 <path id="path189" fill-rule="evenodd" fill="#EEE" d="m202.32,24.5,26.898,0,0,25.858-26.898,0z"/>
 <path id="path191" stroke-linejoin="round" d="m202.32,24.5,26.898,0,0,25.858-26.898,0z" stroke="#595959" stroke-linecap="butt" stroke-width="1"/>
 <path id="path193" fill-rule="evenodd" fill="#EEE" d="m202.32,50.367,26.898,0,0,25.858-26.898,0z"/>
 <path id="path195" stroke-linejoin="round" d="m202.32,50.367,26.898,0,0,25.858-26.898,0z" stroke="#595959" stroke-linecap="butt" stroke-width="1"/>
 <path id="path197" fill-rule="evenodd" fill="#EEE" d="m229.22,24.5,26.898,0,0,25.858-26.898,0z"/>
 <path id="path199" stroke-linejoin="round" d="m229.22,24.5,26.898,0,0,25.858-26.898,0z" stroke="#595959" stroke-linecap="butt" stroke-width="1"/>
 <path id="path201" fill-rule="evenodd" fill="#EEE" d="m229.22,50.367,26.898,0,0,25.858-26.898,0z"/>
 <path id="path203" stroke-linejoin="round" d="m229.22,50.367,26.898,0,0,25.858-26.898,0z" stroke="#595959" stroke-linecap="butt" stroke-width="1"/>
 <path id="path205" fill-rule="evenodd" fill="#EEE" d="m202.32,76.232,26.898,0,0,25.858-26.898,0z"/>
 <path id="path207" stroke-linejoin="round" d="m202.32,76.232,26.898,0,0,25.858-26.898,0z" stroke="#595959" stroke-linecap="butt" stroke-width="1"/>
 <path id="path209" fill-rule="evenodd" fill="#EEE" d="m202.32,102.1,26.898,0,0,25.858-26.898,0z"/>
 <path id="path211" stroke-linejoin="round" d="m202.32,102.1,26.898,0,0,25.858-26.898,0z" stroke="#595959" stroke-linecap="butt" stroke-width="1"/>
 <path id="path213" fill-rule="evenodd" fill="#EEE" d="m229.22,76.232,26.898,0,0,25.858-26.898,0z"/>
 <path id="path215" stroke-linejoin="round" d="m229.22,76.232,26.898,0,0,25.858-26.898,0z" stroke="#595959" stroke-linecap="butt" stroke-width="1"/>
 <path id="path217" fill-rule="evenodd" fill="#EEE" d="m229.22,102.1,26.898,0,0,25.858-26.898,0z"/>
 <path id="path219" stroke-linejoin="round" d="m229.22,102.1,26.898,0,0,25.858-26.898,0z" stroke="#595959" stroke-linecap="butt" stroke-width="1"/>
 <path id="path221" fill-rule="evenodd" fill="#EEE" d="m256.11,24.5,26.898,0,0,25.858-26.898,0z"/>
 <path id="path223" stroke-linejoin="round" d="m256.11,24.5,26.898,0,0,25.858-26.898,0z" stroke="#595959" stroke-linecap="butt" stroke-width="1"/>
 <path id="path225" fill-rule="evenodd" fill="#EEE" d="m256.11,50.367,26.898,0,0,25.858-26.898,0z"/>
 <path id="path227" stroke-linejoin="round" d="m256.11,50.367,26.898,0,0,25.858-26.898,0z" stroke="#595959" stroke-linecap="butt" stroke-width="1"/>
 <path id="path229" fill-rule="evenodd" fill="#EEE" d="m283.01,24.5,26.898,0,0,25.858-26.898,0z"/>
 <path id="path231" stroke-linejoin="round" d="m283.01,24.5,26.898,0,0,25.858-26.898,0z" stroke="#595959" stroke-linecap="butt" stroke-width="1"/>
 <path id="path233" fill-rule="evenodd" fill="#EEE" d="m283.01,50.367,26.898,0,0,25.858-26.898,0z"/>
 <path id="path235" stroke-linejoin="round" d="m283.01,50.367,26.898,0,0,25.858-26.898,0z" stroke="#595959" stroke-linecap="butt" stroke-width="1"/>
 <path id="path237" fill-rule="evenodd" fill="#EEE" d="m256.11,76.232,26.898,0,0,25.858-26.898,0z"/>
 <path id="path239" stroke-linejoin="round" d="m256.11,76.232,26.898,0,0,25.858-26.898,0z" stroke="#595959" stroke-linecap="butt" stroke-width="1"/>
 <path id="path241" fill-rule="evenodd" fill="#EEE" d="m256.11,102.1,26.898,0,0,25.858-26.898,0z"/>
 <path id="path243" stroke-linejoin="round" d="m256.11,102.1,26.898,0,0,25.858-26.898,0z" stroke="#595959" stroke-linecap="butt" stroke-width="1"/>
 <path id="path245" fill-rule="evenodd" fill="#EEE" d="m283.01,76.232,26.898,0,0,25.858-26.898,0z"/>
 <path id="path247" stroke-linejoin="round" d="m283.01,76.232,26.898,0,0,25.858-26.898,0z" stroke="#595959" stroke-linecap="butt" stroke-width="1"/>
 <path id="path249" fill-rule="evenodd" fill="#EEE" d="m283.01,102.1,26.898,0,0,25.858-26.898,0z"/>
 <path id="path251" stroke-linejoin="round" d="m283.01,102.1,26.898,0,0,25.858-26.898,0z" stroke="#595959" stroke-linecap="butt" stroke-width="1"/>
 <path id="path253" fill-rule="evenodd" fill="#EEE" d="m202.32,0.5,26.898,0,0,25.858-26.898,0z"/>
 <path id="path255" stroke-linejoin="round" d="m202.32,0.5,26.898,0,0,25.858-26.898,0z" stroke="#595959" stroke-linecap="butt" stroke-width="1"/>
 <path id="path257" fill-rule="evenodd" fill="#EEE" d="m229.22,0.5,26.898,0,0,25.858-26.898,0z"/>
 <path id="path259" stroke-linejoin="round" d="m229.22,0.5,26.898,0,0,25.858-26.898,0z" stroke="#595959" stroke-linecap="butt" stroke-width="1"/>
 <path id="path261" fill-rule="evenodd" fill="#EEE" d="m256.11,0.5,26.898,0,0,25.858-26.898,0z"/>
 <path id="path263" stroke-linejoin="round" d="m256.11,0.5,26.898,0,0,25.858-26.898,0z" stroke="#595959" stroke-linecap="butt" stroke-width="1"/>
 <path id="path265" fill-rule="evenodd" fill="#EEE" d="m283.01,0.5,26.898,0,0,25.858-26.898,0z"/>
 <path id="path267" stroke-linejoin="round" d="m283.01,0.5,26.898,0,0,25.858-26.898,0z" stroke="#595959" stroke-linecap="butt" stroke-width="1"/>
 <path id="path269" fill-rule="evenodd" fill="#EEE" d="m202.32,128.5,26.898,0,0,25.858-26.898,0z"/>
 <path id="path271" stroke-linejoin="round" d="m202.32,128.5,26.898,0,0,25.858-26.898,0z" stroke="#595959" stroke-linecap="butt" stroke-width="1"/>
 <path id="path273" fill-rule="evenodd" fill="#EEE" d="m229.22,128.5,26.898,0,0,25.858-26.898,0z"/>
 <path id="path275" stroke-linejoin="round" d="m229.22,128.5,26.898,0,0,25.858-26.898,0z" stroke="#595959" stroke-linecap="butt" stroke-width="1"/>
 <path id="path277" fill-rule="evenodd" fill="#EEE" d="m256.11,128.5,26.898,0,0,25.858-26.898,0z"/>
 <path id="path279" stroke-linejoin="round" d="m256.11,128.5,26.898,0,0,25.858-26.898,0z" stroke="#595959" stroke-linecap="butt" stroke-width="1"/>
 <path id="path281" fill-rule="evenodd" fill="#EEE" d="m283.01,128.5,26.898,0,0,25.858-26.898,0z"/>
 <path id="path283" stroke-linejoin="round" d="m283.01,128.5,26.898,0,0,25.858-26.898,0z" stroke="#595959" stroke-linecap="butt" stroke-width="1"/>
 <path id="path285" fill-rule="evenodd" fill="#EEE" d="m178.32,24.5,26.898,0,0,25.858-26.898,0z"/>
 <path id="path287" stroke-linejoin="round" d="m178.32,24.5,26.898,0,0,25.858-26.898,0z" stroke="#595959" stroke-linecap="butt" stroke-width="1"/>
 <path id="path289" fill-rule="evenodd" fill="#EEE" d="m178.32,50.367,26.898,0,0,25.858-26.898,0z"/>
 <path id="path291" stroke-linejoin="round" d="m178.32,50.367,26.898,0,0,25.858-26.898,0z" stroke="#595959" stroke-linecap="butt" stroke-width="1"/>
 <path id="path293" fill-rule="evenodd" fill="#EEE" d="m178.32,76.232,26.898,0,0,25.858-26.898,0z"/>
 <path id="path295" stroke-linejoin="round" d="m178.32,76.232,26.898,0,0,25.858-26.898,0z" stroke="#595959" stroke-linecap="butt" stroke-width="1"/>
 <path id="path297" fill-rule="evenodd" fill="#EEE" d="m178.32,102.1,26.898,0,0,25.858-26.898,0z"/>
 <path id="path299" stroke-linejoin="round" d="m178.32,102.1,26.898,0,0,25.858-26.898,0z" stroke="#595959" stroke-linecap="butt" stroke-width="1"/>
 <path id="path301" fill-rule="evenodd" fill="#EEE" d="m178.32,0.5,26.898,0,0,25.858-26.898,0z"/>
 <path id="path303" stroke-linejoin="round" d="m178.32,0.5,26.898,0,0,25.858-26.898,0z" stroke="#595959" stroke-linecap="butt" stroke-width="1"/>
 <path id="path305" fill-rule="evenodd" fill="#EEE" d="m178.32,128.5,26.898,0,0,25.858-26.898,0z"/>
 <path id="path307" stroke-linejoin="round" d="m178.32,128.5,26.898,0,0,25.858-26.898,0z" stroke="#595959" stroke-linecap="butt" stroke-width="1"/>
 <path id="path309" fill-rule="evenodd" fill="#EEE" d="m306.32,24.5,26.898,0,0,25.858-26.898,0z"/>
 <path id="path311" stroke-linejoin="round" d="m306.32,24.5,26.898,0,0,25.858-26.898,0z" stroke="#595959" stroke-linecap="butt" stroke-width="1"/>
 <path id="path313" fill-rule="evenodd" fill="#EEE" d="m306.32,50.367,26.898,0,0,25.858-26.898,0z"/>
 <path id="path315" stroke-linejoin="round" d="m306.32,50.367,26.898,0,0,25.858-26.898,0z" stroke="#595959" stroke-linecap="butt" stroke-width="1"/>
 <path id="path317" fill-rule="evenodd" fill="#EEE" d="m306.32,76.232,26.898,0,0,25.858-26.898,0z"/>
 <path id="path319" stroke-linejoin="round" d="m306.32,76.232,26.898,0,0,25.858-26.898,0z" stroke="#595959" stroke-linecap="butt" stroke-width="1"/>
 <path id="path321" fill-rule="evenodd" fill="#EEE" d="m306.32,102.1,26.898,0,0,25.858-26.898,0z"/>
 <path id="path323" stroke-linejoin="round" d="m306.32,102.1,26.898,0,0,25.858-26.898,0z" stroke="#595959" stroke-linecap="butt" stroke-width="1"/>
 <path id="path325" fill-rule="evenodd" fill="#EEE" d="m306.32,0.5,26.898,0,0,25.858-26.898,0z"/>
 <path id="path327" stroke-linejoin="round" d="m306.32,0.5,26.898,0,0,25.858-26.898,0z" stroke="#595959" stroke-linecap="butt" stroke-width="1"/>
 <path id="path329" fill-rule="evenodd" fill="#EEE" d="m306.32,128.5,26.898,0,0,25.858-26.898,0z"/>
 <path id="path331" stroke-linejoin="round" d="m306.32,128.5,26.898,0,0,25.858-26.898,0z" stroke="#595959" stroke-linecap="butt" stroke-width="1"/>
 <path id="path339" fill-rule="evenodd" fill="#EEE" d="m376.49,25.403,51.465,0,0,48.598-51.465,0z"/>
 <path id="path341" stroke-linejoin="round" d="m376.49,25.403,51.465,0,0,48.598-51.465,0z" stroke="#595959" stroke-linecap="butt" stroke-width="1"/>
 <path id="path343" fill-rule="evenodd" fill="#EEE" d="m376.49,74.02,51.465,0,0,48.598-51.465,0z"/>
 <path id="path345" stroke-linejoin="round" d="m376.49,74.02,51.465,0,0,48.598-51.465,0z" stroke="#595959" stroke-linecap="butt" stroke-width="1"/>
 <path id="path347" fill-rule="evenodd" fill="#EEE" d="m427.96,25.403,51.465,0,0,48.598-51.465,0z"/>
 <path id="path349" stroke-linejoin="round" d="m427.96,25.403,51.465,0,0,48.598-51.465,0z" stroke="#595959" stroke-linecap="butt" stroke-width="1"/>
 <path id="path351" fill-rule="evenodd" fill="#EEE" d="m427.96,74.02,51.465,0,0,48.598-51.465,0z"/>
 <path id="path353" stroke-linejoin="round" d="m427.96,74.02,51.465,0,0,48.598-51.465,0z" stroke="#595959" stroke-linecap="butt" stroke-width="1"/>
 <path id="path357" stroke-linejoin="round" d="m147.62,85.697,16.238,0.36798" stroke="#595959" stroke-linecap="butt" stroke-width="1"/>
 <path id="path359" d="m163.82,87.716,4.5743-1.5485-4.4995-1.7541z" fill-rule="evenodd" stroke="#595959" stroke-linecap="butt" stroke-width="1" fill="#595959"/>
 <path id="path363" stroke-linejoin="round" d="m342.1,76.904,20.898,0" stroke="#595959" stroke-linecap="butt" stroke-width="1"/>
 <path id="path365" d="m363,78.556,4.5381-1.6517-4.5381-1.6517z" fill-rule="evenodd" stroke="#595959" stroke-linecap="butt" stroke-width="1" fill="#595959"/>
 <path id="path377" fill-rule="nonzero" fill="#000" d="m33.307,180.03,1.6875-0.14062q0.125,1.0156,0.5625,1.6719,0.4375,0.65625,1.3594,1.0625,0.9375,0.40625,2.0937,0.40625,1.0313,0,1.8125-0.3125,0.7969-0.3125,1.1875-0.84375,0.3907-0.53125,0.3907-1.1562,0-0.64062-0.375-1.1094-0.375-0.48438-1.2344-0.8125-0.5469-0.21875-2.4219-0.65625-1.875-0.45313-2.625-0.85938-0.9687-0.51562-1.4531-1.2656-0.4688-0.75-0.4688-1.6875,0-1.0312,0.5782-1.9219,0.5937-0.90625,1.7031-1.3594,1.125-0.46875,2.5-0.46875,1.5156,0,2.6719,0.48437,1.1562,0.48438,1.7656,1.4375,0.625,0.9375,0.6719,2.1406l-1.7188,0.125q-0.1406-1.2812-0.9531-1.9375-0.7969-0.67188-2.3594-0.67188-1.625,0-2.375,0.60938-0.75,0.59375-0.75,1.4375,0,0.73437,0.5313,1.2031,0.5156,0.46875,2.7031,0.96875,2.2031,0.5,3.0156,0.875,1.1875,0.54688,1.75,1.3906,0.5781,0.82812,0.5781,1.9219t-0.625,2.0625q-0.625,0.95313-1.7968,1.4844-1.1563,0.53125-2.6094,0.53125-1.8438,0-3.0938-0.53125-1.25-0.54688-1.9687-1.625-0.7031-1.0781-0.7344-2.4531zm12.209-0.54687q0-2.7344,1.5313-4.0625,1.2656-1.0938,3.0937-1.0938,2.0313,0,3.3125,1.3438,1.2969,1.3281,1.2969,3.6719,0,1.9062-0.5781,3-0.5625,1.0781-1.6563,1.6875-1.0781,0.59375-2.375,0.59375-2.0625,0-3.3437-1.3281-1.2813-1.3281-1.2813-3.8125zm1.7188,0q0,1.8906,0.8281,2.8281t2.0781,0.9375,2.0625-0.9375q0.8281-0.95312,0.8281-2.8906,0-1.8281-0.8281-2.7656t-2.0625-0.9375q-1.25,0-2.0781,0.9375t-0.8281,2.8281zm15.735,4.9219,0-1.4531q-1.1406,1.6719-3.125,1.6719-0.8593,0-1.625-0.32812-0.75-0.34375-1.125-0.84375-0.3593-0.5-0.5156-1.2344-0.094-0.5-0.094-1.5625v-6.1094h1.6719v5.4688q0,1.3125,0.094,1.7656,0.1562,0.65625,0.6719,1.0312,0.5156,0.375,1.2656,0.375t1.4062-0.375q0.6563-0.39062,0.9219-1.0469,0.2813-0.67188,0.2813-1.9375v-5.2812h1.6718v9.8594h-1.5zm3.907,0,0-9.8594,1.5,0,0,1.5q0.5781-1.0469,1.0625-1.375,0.4844-0.34375,1.0781-0.34375,0.8438,0,1.7188,0.54687l-0.5781,1.5469q-0.6094-0.35938-1.2344-0.35938-0.5469,0-0.9844,0.32813-0.4219,0.32812-0.6094,0.90625-0.2812,0.89062-0.2812,1.9531v5.1562h-1.6719zm12.666-3.6094,1.6406,0.21875q-0.2656,1.6875-1.375,2.6562-1.1093,0.95312-2.7343,0.95312-2.0157,0-3.25-1.3125-1.2188-1.3281-1.2188-3.7969,0-1.5938,0.5156-2.7812,0.5313-1.2031,1.6094-1.7969,1.0938-0.60937,2.3594-0.60937,1.6094,0,2.625,0.8125t1.3125,2.3125l-1.625,0.25q-0.2344-1-0.8281-1.5-0.5938-0.5-1.4219-0.5-1.2656,0-2.0625,0.90625-0.7813,0.90625-0.7813,2.8594,0,1.9844,0.7657,2.8906,0.7656,0.89062,1.9843,0.89062,0.9844,0,1.6407-0.59375,0.6562-0.60937,0.8437-1.8594zm9.6406,0.4375,1.7188,0.21875q-0.4063,1.5-1.5156,2.3438-1.0938,0.82812-2.8125,0.82812-2.1563,0-3.4219-1.3281t-1.2656-3.7344q0-2.4844,1.2656-3.8594,1.2812-1.375,3.3281-1.375,1.9844,0,3.2344,1.3438t1.25,3.7969q0,0.14063-0.016,0.4375h-7.3438q0.094,1.625,0.9219,2.4844,0.8281,0.85937,2.0625,0.85937,0.9063,0,1.5469-0.46875,0.6562-0.48437,1.0469-1.5469zm-5.4843-2.7031,5.5,0q-0.1094-1.2344-0.625-1.8594-0.7969-0.96875-2.0782-0.96875-1.1406,0-1.9375,0.78125-0.7812,0.76562-0.8593,2.0469z"/>
 <path id="path381" fill-rule="nonzero" fill="#000" d="m200.21,203.54,0-13.594,1.8125,0,0,13.594-1.8125,0zm4.6677,0,0-9.8594,1.5,0,0,1.4062q1.0938-1.625,3.1407-1.625,0.8906,0,1.6406,0.32812,0.75,0.3125,1.1094,0.84375,0.375,0.51563,0.5312,1.2188,0.094,0.46875,0.094,1.625v6.0625h-1.6719v-6q0-1.0156-0.2031-1.5156-0.1875-0.51563-0.6875-0.8125-0.5-0.29688-1.1719-0.29688-1.0625,0-1.8437,0.67188-0.7656,0.67187-0.7656,2.5781v5.375h-1.6719zm14.032-1.5,0.2343,1.4844q-0.7031,0.14062-1.2656,0.14062-0.9062,0-1.4062-0.28125-0.5-0.29687-0.7032-0.75-0.2031-0.46875-0.2031-1.9844v-5.6562h-1.2344v-1.3125h1.2344v-2.4375l1.6563-1v3.4375h1.6875v1.3125h-1.6875v5.75q0,0.71875,0.078,0.92187,0.094,0.20313,0.2968,0.32813,0.2032,0.125,0.5782,0.125,0.2656,0,0.7343-0.0781zm8.2771-1.6719,1.7187,0.21875q-0.4062,1.5-1.5156,2.3438-1.0938,0.82812-2.8125,0.82812-2.1563,0-3.4219-1.3281t-1.2656-3.7344q0-2.4844,1.2656-3.8594,1.2813-1.375,3.3281-1.375,1.9844,0,3.2344,1.3438t1.25,3.7969q0,0.14063-0.016,0.4375h-7.3437q0.094,1.625,0.9218,2.4844,0.8282,0.85937,2.0625,0.85937,0.9063,0,1.5469-0.46875,0.6563-0.48437,1.0469-1.5469zm-5.4844-2.7031,5.5,0q-0.1094-1.2344-0.625-1.8594-0.7969-0.96875-2.0781-0.96875-1.1407,0-1.9375,0.78125-0.7813,0.76562-0.8594,2.0469zm9.0944,5.875,0-9.8594,1.5,0,0,1.5q0.5781-1.0469,1.0625-1.375,0.4844-0.34375,1.0781-0.34375,0.8438,0,1.7188,0.54687l-0.5781,1.5469q-0.6094-0.35938-1.2344-0.35938-0.5469,0-0.9844,0.32813-0.4219,0.32812-0.6094,0.90625-0.2812,0.89062-0.2812,1.9531v5.1562h-1.6719zm6.2283,0,0-9.8594,1.5,0,0,1.3906q0.4532-0.71875,1.2188-1.1562,0.7812-0.45312,1.7656-0.45312,1.0938,0,1.7969,0.45312,0.7031,0.45313,0.9844,1.2812,1.1718-1.7344,3.0468-1.7344,1.4688,0,2.25,0.8125,0.7969,0.8125,0.7969,2.5v6.7656h-1.6719v-6.2031q0-1-0.1562-1.4375-0.1563-0.45313-0.5938-0.71875-0.4218-0.26563-1-0.26563-1.0312,0-1.7187,0.6875t-0.6875,2.2188v5.7188h-1.6719v-6.4062q0-1.1094-0.4062-1.6562-0.4063-0.5625-1.3438-0.5625-0.7031,0-1.3125,0.375-0.5937,0.35938-0.8594,1.0781-0.2656,0.71875-0.2656,2.0625v5.1094h-1.6719zm22.291-3.1719,1.7188,0.21875q-0.4063,1.5-1.5157,2.3438-1.0937,0.82812-2.8125,0.82812-2.1562,0-3.4218-1.3281-1.2657-1.3281-1.2657-3.7344,0-2.4844,1.2657-3.8594,1.2812-1.375,3.3281-1.375,1.9844,0,3.2344,1.3438t1.25,3.7969q0,0.14063-0.016,0.4375h-7.3438q0.094,1.625,0.9219,2.4844,0.8281,0.85937,2.0625,0.85937,0.9062,0,1.5469-0.46875,0.6562-0.48437,1.0468-1.5469zm-5.4844-2.7031,5.5,0q-0.1093-1.2344-0.625-1.8594-0.7968-0.96875-2.0781-0.96875-1.1406,0-1.9375,0.78125-0.7812,0.76562-0.8594,2.0469zm15.501,5.875,0-1.25q-0.9375,1.4688-2.75,1.4688-1.1719,0-2.1719-0.64062-0.9844-0.65625-1.5313-1.8125-0.5312-1.1719-0.5312-2.6875,0-1.4688,0.4844-2.6719,0.5-1.2031,1.4687-1.8438,0.9844-0.64062,2.2031-0.64062,0.8907,0,1.5782,0.375,0.7031,0.375,1.1406,0.98437v-4.875h1.6562v13.594h-1.5468zm-5.2813-4.9219q0,1.8906,0.7969,2.8281,0.8125,0.9375,1.8906,0.9375,1.0938,0,1.8594-0.89062,0.7656-0.89063,0.7656-2.7344,0-2.0156-0.7812-2.9531-0.7813-0.95313-1.9219-0.95313-1.1094,0-1.8594,0.90625t-0.75,2.8594zm9.282-6.7656,0-1.9062,1.6719,0,0,1.9062-1.6719,0zm0,11.688,0-9.8594,1.6719,0,0,9.8594-1.6719,0zm10.567-1.2188q-0.9375,0.79688-1.7969,1.125-0.8593,0.3125-1.8437,0.3125-1.6094,0-2.4844-0.78125-0.875-0.79687-0.875-2.0312,0-0.73437,0.3281-1.3281,0.3282-0.59375,0.8594-0.95313,0.5313-0.35937,1.2031-0.54687,0.5-0.14063,1.4844-0.25,2.0313-0.25,2.9844-0.57813,0-0.34375,0-0.4375,0-1.0156-0.4688-1.4375-0.6406-0.5625-1.9062-0.5625-1.1719,0-1.7344,0.40625t-0.8281,1.4688l-1.6406-0.23437q0.2343-1.0469,0.7343-1.6875,0.5157-0.64063,1.4688-0.98438,0.9687-0.35937,2.25-0.35937,1.2656,0,2.0469,0.29687,0.7812,0.29688,1.1562,0.75,0.375,0.45313,0.5156,1.1406,0.094,0.42187,0.094,1.5312v2.2344q0,2.3281,0.094,2.9531,0.1094,0.60937,0.4375,1.1719h-1.75q-0.2656-0.51562-0.3281-1.2188zm-0.1406-3.7188q-0.9063,0.35938-2.7344,0.625-1.0312,0.14063-1.4531,0.32813t-0.6563,0.54687q-0.2343,0.35938-0.2343,0.79688,0,0.67187,0.5,1.125,0.5156,0.4375,1.4843,0.4375,0.9688,0,1.7188-0.42188,0.75-0.4375,1.1094-1.1562,0.2656-0.57812,0.2656-1.6719v-0.60938zm7.735,3.4375,0.2344,1.4844q-0.7031,0.14062-1.2656,0.14062-0.9063,0-1.4063-0.28125-0.5-0.29687-0.7031-0.75-0.2031-0.46875-0.2031-1.9844v-5.6562h-1.2344v-1.3125h1.2344v-2.4375l1.6562-1v3.4375h1.6875v1.3125h-1.6875v5.75q0,0.71875,0.078,0.92187,0.094,0.20313,0.2969,0.32813,0.2031,0.125,0.5781,0.125,0.2657,0,0.7344-0.0781zm8.2771-1.6719,1.7188,0.21875q-0.4063,1.5-1.5156,2.3438-1.0938,0.82812-2.8125,0.82812-2.1563,0-3.4219-1.3281t-1.2656-3.7344q0-2.4844,1.2656-3.8594,1.2812-1.375,3.3281-1.375,1.9844,0,3.2344,1.3438t1.25,3.7969q0,0.14063-0.016,0.4375h-7.3438q0.094,1.625,0.9219,2.4844,0.8281,0.85937,2.0625,0.85937,0.9063,0,1.5469-0.46875,0.6562-0.48437,1.0469-1.5469zm-5.4843-2.7031,5.5,0q-0.1094-1.2344-0.625-1.8594-0.7969-0.96875-2.0782-0.96875-1.1406,0-1.9375,0.78125-0.7812,0.76562-0.8593,2.0469z"/>
 <path id="path385" fill-rule="nonzero" fill="#000" d="m397.34,175.54,0-12-4.4687,0,0-1.5938,10.766,0,0,1.5938-4.5,0,0,12-1.7969,0zm14.162-1.2188q-0.9375,0.79687-1.7968,1.125-0.8594,0.3125-1.8438,0.3125-1.6094,0-2.4844-0.78125-0.875-0.79688-0.875-2.0312,0-0.73438,0.3282-1.3281,0.3281-0.59375,0.8593-0.95312,0.5313-0.35938,1.2032-0.54688,0.5-0.14062,1.4843-0.25,2.0313-0.25,2.9844-0.57812,0-0.34375,0-0.4375,0-1.0156-0.4687-1.4375-0.6407-0.5625-1.9063-0.5625-1.1719,0-1.7344,0.40625t-0.8281,1.4688l-1.6406-0.23438q0.2344-1.0469,0.7344-1.6875,0.5156-0.64062,1.4687-0.98437,0.9688-0.35938,2.25-0.35938,1.2656,0,2.0469,0.29688,0.7812,0.29687,1.1562,0.75,0.375,0.45312,0.5157,1.1406,0.094,0.42188,0.094,1.5312v2.2344q0,2.3281,0.094,2.9531,0.1093,0.60938,0.4375,1.1719h-1.75q-0.2657-0.51563-0.3282-1.2188zm-0.1406-3.7188q-0.9062,0.35937-2.7344,0.625-1.0312,0.14062-1.4531,0.32812t-0.6562,0.54688q-0.2344,0.35937-0.2344,0.79687,0,0.67188,0.5,1.125,0.5156,0.4375,1.4844,0.4375,0.9687,0,1.7187-0.42187,0.75-0.4375,1.1094-1.1562,0.2656-0.57813,0.2656-1.6719v-0.60937zm4.0632,4.9375,0-9.8594,1.5,0,0,1.5q0.5782-1.0469,1.0625-1.375,0.4844-0.34375,1.0782-0.34375,0.8437,0,1.7187,0.54688l-0.5781,1.5469q-0.6094-0.35937-1.2344-0.35937-0.5469,0-0.9844,0.32812-0.4218,0.32813-0.6093,0.90625-0.2813,0.89063-0.2813,1.9531v5.1562h-1.6719zm5.9314,0.8125,1.6094,0.25q0.1094,0.75,0.5781,1.0938,0.6094,0.45312,1.6875,0.45312,1.1719,0,1.7969-0.46875,0.625-0.45312,0.8594-1.2812,0.125-0.51562,0.1094-2.1562-1.0938,1.2969-2.7188,1.2969-2.0312,0-3.1562-1.4688-1.1094-1.4688-1.1094-3.5156,0-1.4062,0.5156-2.5938,0.5156-1.2031,1.4844-1.8438,0.9687-0.65625,2.2656-0.65625,1.75,0,2.875,1.4062v-1.1875h1.5469v8.5156q0,2.3125-0.4688,3.2656-0.4687,0.96875-1.4843,1.5156-1.0157,0.5625-2.5,0.5625-1.7657,0-2.8594-0.79688-1.0781-0.79687-1.0313-2.3906zm1.375-5.9219q0,1.9531,0.7657,2.8438,0.7812,0.89063,1.9375,0.89063,1.1406,0,1.9218-0.89063,0.7813-0.89062,0.7813-2.7812,0-1.8125-0.8125-2.7188-0.7969-0.92187-1.9219-0.92187-1.1094,0-1.8906,0.90625-0.7813,0.89062-0.7813,2.6719zm16.048,1.9375,1.7188,0.21875q-0.4063,1.5-1.5156,2.3438-1.0938,0.82813-2.8125,0.82813-2.1563,0-3.4219-1.3281t-1.2656-3.7344q0-2.4844,1.2656-3.8594,1.2812-1.375,3.3281-1.375,1.9844,0,3.2344,1.3438t1.25,3.7969q0,0.14062-0.016,0.4375h-7.3438q0.094,1.625,0.9219,2.4844,0.8281,0.85938,2.0625,0.85938,0.9063,0,1.5469-0.46875,0.6562-0.48438,1.0469-1.5469zm-5.4843-2.7031,5.5,0q-0.1094-1.2344-0.625-1.8594-0.7969-0.96875-2.0782-0.96875-1.1406,0-1.9375,0.78125-0.7812,0.76563-0.8593,2.0469zm12.766,4.375,0.2344,1.4844q-0.7031,0.14063-1.2656,0.14063-0.9063,0-1.4063-0.28125-0.5-0.29688-0.7031-0.75-0.2031-0.46875-0.2031-1.9844v-5.6562h-1.2344v-1.3125h1.2344v-2.4375l1.6562-1v3.4375h1.6875v1.3125h-1.6875v5.75q0,0.71875,0.078,0.92188,0.094,0.20312,0.2969,0.32812,0.2031,0.125,0.5781,0.125,0.2656,0,0.7344-0.0781z"/>
 <path id="path393" fill-rule="nonzero" fill="#cc4125" d="m148.63,149.54,11.453,0,0,4.2969q0,1.3125-0.3437,2.1094-0.3438,0.79687-1.0781,1.2344-0.7188,0.45313-1.5,0.45313-0.7344,0-1.3907-0.40625-0.6406-0.39063-1.0468-1.1875-0.2969,1.0312-1.0313,1.5938-0.7344,0.5625-1.7344,0.5625-0.8125,0-1.5-0.34375t-1.0625-0.84375-0.5781-1.25q-0.1875-0.75-0.1875-1.8438v-4.375zm6.6406,1.5156,0,2.4844q0,1,0.1407,1.4375,0.1718,0.57812,0.5625,0.875,0.4062,0.29687,1,0.29687,0.5781,0,1-0.28125,0.4375-0.26562,0.5937-0.78125,0.1719-0.5,0.1719-1.7344v-2.2969h-3.4688zm-5.2812,0,0,2.8594q0,0.73437,0.047,1.0312,0.094,0.51562,0.3125,0.85937,0.2187,0.35938,0.6406,0.57813,0.4219,0.23437,0.9688,0.23437,0.6406,0,1.1093-0.32812,0.4688-0.32813,0.6563-0.90625,0.2031-0.57813,0.2031-1.6719v-2.6562h-3.9375zm8.4844,9.0469,1.6093,0,0,1.4062-1.6093,0,0-1.4062zm-9.8438,0,8.2969,0,0,1.4062-8.2969,0,0-1.4062zm0,3.5234,11.453,0,0,1.4062-11.453,0,0-1.4062zm9.8438,3.5859,1.6093,0,0,1.4062-1.6093,0,0-1.4062zm-9.8438,0,8.2969,0,0,1.4062-8.2969,0,0-1.4062zm0,3.5547,8.2969,0,0,1.2656-1.1719,0q1.3594,0.90625,1.3594,2.6406,0,0.75-0.2656,1.375-0.2657,0.625-0.7032,0.9375t-1.0468,0.4375q-0.3907,0.0781-1.3594,0.0781h-5.1094v-1.4062h5.0469q0.8594,0,1.2812-0.17188,0.4375-0.15625,0.6875-0.57812,0.25-0.40625,0.25-0.96875,0-0.90625-0.5781-1.5625-0.5625-0.64063-2.1562-0.64063h-4.5313v-1.4062zm2.6719,14.57-0.1719,1.4531q-1.2812-0.34375-1.9844-1.2812-0.7031-0.92188-0.7031-2.3594,0-1.8281,1.125-2.8906t3.1406-1.0625q2.0938,0,3.25,1.0781,1.1563,1.0781,1.1563,2.7969,0,1.6562-1.1406,2.7031-1.125,1.0625-3.1719,1.0625-0.125,0-0.375,0v-6.1875q-1.375,0.0781-2.1094,0.76563-0.7187,0.70312-0.7187,1.7344,0,0.78125,0.4062,1.3281,0.4063,0.54687,1.2969,0.85937zm2.2812-4.6094,0,4.625q1.0469-0.0937,1.5625-0.53125,0.8125-0.67188,0.8125-1.7344,0-0.96875-0.6562-1.6406-0.6406-0.65625-1.7188-0.71875zm-3.9218,13.242q-0.6719-0.78125-0.9532-1.5-0.2656-0.71875-0.2656-1.5469,0-1.375,0.6719-2.1094,0.6719-0.73438,1.7031-0.73438,0.6094,0,1.1094,0.28125,0.5156,0.28125,0.8125,0.71875,0.3125,0.45313,0.4687,1.0156,0.1094,0.42187,0.2032,1.25,0.2031,1.7031,0.4843,2.5156,0.2969,0,0.375,0,0.8594,0,1.2032-0.39062,0.4843-0.54688,0.4843-1.6094,0-0.98437-0.3593-1.4688-0.3438-0.46875-1.2188-0.6875l0.1875-1.375q0.875,0.1875,1.4219,0.60938,0.5469,0.4375,0.8281,1.25,0.2969,0.8125,0.2969,1.875t-0.25,1.7188q-0.25,0.67187-0.625,0.98437t-0.9531,0.4375q-0.3594,0.0781-1.2969,0.0781h-1.875q-1.9688,0-2.4844,0.0781-0.5156,0.0937-1,0.35938v-1.4688q0.4375-0.21875,1.0313-0.28125zm3.1406-0.10938q-0.3125-0.76562-0.5313-2.2969-0.125-0.875-0.2812-1.2344-0.1563-0.35937-0.4688-0.5625-0.2968-0.1875-0.6562-0.1875-0.5625,0-0.9375,0.42188-0.375,0.4375-0.375,1.25t0.3437,1.4375q0.3594,0.64062,0.9844,0.9375,0.4688,0.23437,1.4063,0.23437h0.5156zm-4.1719,3.5859,8.2969,0,0,1.2656-1.25,0q0.875,0.48438,1.1562,0.89063,0.2813,0.40625,0.2813,0.90625,0,0.70312-0.4531,1.4375l-1.2969-0.48438q0.2969-0.51562,0.2969-1.0312,0-0.45312-0.2813-0.82812-0.2656-0.35938-0.7656-0.51563-0.75-0.23437-1.6406-0.23437h-4.3438v-1.4062z"/>
 <path id="path397" fill-rule="nonzero" fill="#cc4125" d="m351.34,144.32,11.453,4.4062,0,1.6406-11.453,4.6875,0-1.7344,3.4688-1.3281,0-4.7969-3.4688-1.25,0-1.625zm4.7032,3.3125,0,3.8906,3.1718-1.2031q1.4532-0.54688,2.375-0.8125-1.0937-0.21875-2.1875-0.60938l-3.3593-1.2656zm-4.7032,8.4375,8.2969,0,0,1.2656-1.25,0q0.875,0.48438,1.1563,0.89063,0.2812,0.40625,0.2812,0.90625,0,0.70312-0.4531,1.4375l-1.2969-0.48438q0.2969-0.51562,0.2969-1.0312,0-0.45312-0.2813-0.82812-0.2656-0.35938-0.7656-0.51563-0.75-0.23437-1.6406-0.23437h-4.3438v-1.4062zm2.6719,11.016-0.1719,1.4531q-1.2812-0.34375-1.9843-1.2812-0.7032-0.92188-0.7032-2.3594,0-1.8281,1.125-2.8906t3.1407-1.0625q2.0937,0,3.25,1.0781,1.1562,1.0781,1.1562,2.7969,0,1.6562-1.1406,2.7031-1.125,1.0625-3.1719,1.0625-0.125,0-0.375,0v-6.1875q-1.375,0.0781-2.1094,0.76563-0.7187,0.70312-0.7187,1.7344,0,0.78125,0.4062,1.3281,0.4063,0.54687,1.2969,0.85937zm2.2813-4.6094,0,4.625q1.0468-0.0937,1.5625-0.53125,0.8125-0.67188,0.8125-1.7344,0-0.96875-0.6563-1.6406-0.6406-0.65625-1.7187-0.71875zm-3.9219,13.242q-0.6719-0.78125-0.9531-1.5-0.2657-0.71875-0.2657-1.5469,0-1.375,0.6719-2.1094,0.6719-0.73438,1.7031-0.73438,0.6094,0,1.1094,0.28125,0.5156,0.28125,0.8125,0.71875,0.3125,0.45313,0.4688,1.0156,0.1093,0.42187,0.2031,1.25,0.2031,1.7031,0.4844,2.5156,0.2968,0,0.375,0,0.8593,0,1.2031-0.39062,0.4844-0.54688,0.4844-1.6094,0-0.98437-0.3594-1.4688-0.3438-0.46875-1.2188-0.6875l0.1875-1.375q0.875,0.1875,1.4219,0.60938,0.5469,0.4375,0.8281,1.25,0.2969,0.8125,0.2969,1.875t-0.25,1.7188q-0.25,0.67187-0.625,0.98437t-0.9531,0.4375q-0.3594,0.0781-1.2969,0.0781h-1.875q-1.9687,0-2.4844,0.0781-0.5156,0.0937-1,0.35938v-1.4688q0.4375-0.21875,1.0313-0.28125zm3.1406-0.10938q-0.3125-0.76562-0.5312-2.2969-0.125-0.875-0.2813-1.2344-0.1562-0.35937-0.4687-0.5625-0.2969-0.1875-0.6563-0.1875-0.5625,0-0.9375,0.42188-0.375,0.4375-0.375,1.25t0.3438,1.4375q0.3593,0.64062,0.9843,0.9375,0.4688,0.23437,1.4063,0.23437h0.5156zm-4.1719,5.1328,8.2969-2.5469,0,1.4531-4.7812,1.3281-1.7813,0.48437q0.125,0.0312,1.7031,0.4375l4.8594,1.3125v1.4531l-4.8125,1.2344-1.5781,0.42188,1.5937,0.46875,4.7969,1.4219v1.375l-8.2969-2.5938v-1.4688l4.9688-1.3125,1.4219-0.32812-6.3907-1.6719v-1.4688zm2.6719,15.695-0.1719,1.4531q-1.2812-0.34375-1.9843-1.2812-0.7032-0.92187-0.7032-2.3594,0-1.8281,1.125-2.8906t3.1407-1.0625q2.0937,0,3.25,1.0781,1.1562,1.0781,1.1562,2.7969,0,1.6562-1.1406,2.7031-1.125,1.0625-3.1719,1.0625-0.125,0-0.375,0v-6.1875q-1.375,0.0781-2.1094,0.76562-0.7187,0.70313-0.7187,1.7344,0,0.78125,0.4062,1.3281,0.4063,0.54688,1.2969,0.85938zm2.2813-4.6094,0,4.625q1.0468-0.0937,1.5625-0.53125,0.8125-0.67187,0.8125-1.7344,0-0.96875-0.6563-1.6406-0.6406-0.65625-1.7187-0.71875zm4.8906,7.8359,1.6094,0,0,1.4062-1.6094,0,0-1.4062zm-9.8438,0,8.2969,0,0,1.4062-8.2969,0,0-1.4062zm-0.6875,3.2891-0.2031,1.375q-0.6406,0.0781-0.9219,0.46875-0.3906,0.53125-0.3906,1.4375,0,0.96875,0.3906,1.5,0.3907,0.53125,1.0938,0.71875,0.4219,0.10938,1.8125,0.10938-1.0938-0.92188-1.0938-2.2969,0-1.7188,1.2344-2.6562,1.2344-0.9375,2.9688-0.9375,1.1875,0,2.1875,0.42188,1,0.4375,1.5468,1.25,0.5469,0.82812,0.5469,1.9219,0,1.4688-1.1875,2.4219h1v1.2969h-7.1719q-1.9375,0-2.75-0.39062-0.8125-0.39063-1.2812-1.25-0.4688-0.85938-0.4688-2.1094,0-1.4844,0.6719-2.4062,0.6719-0.90625,2.0156-0.875zm4.9844,1.1719q-1.625,0-2.375,0.64062-0.75,0.65625-0.75,1.625t0.7344,1.625q0.75,0.65625,2.3437,0.65625,1.5313,0,2.2969-0.67187,0.7813-0.67188,0.7813-1.625,0-0.9375-0.7657-1.5938-0.7656-0.65625-2.2656-0.65625zm-4.2969,7.9922,11.453,0,0,1.4062-4.1094,0q1.1406,0.98438,1.1406,2.4844,0,0.92187-0.3594,1.5938-0.3593,0.6875-1,0.96875-0.6406,0.29687-1.8593,0.29687h-5.2657v-1.4062h5.2657q1.0468,0,1.5312-0.45312,0.4844-0.45313,0.4844-1.2969,0-0.625-0.3281-1.1719-0.3282-0.54688-0.8907-0.78125-0.5468-0.23438-1.5156-0.23438h-4.5469v-1.4062zm1.2657,11.961-1.25,0.20313q-0.125-0.59375-0.125-1.0625,0-0.76563,0.2343-1.1875,0.25-0.42188,0.6407-0.59375,0.4062-0.17188,1.6718-0.17188h4.7657v-1.0312h1.0937v1.0312h2.0625l0.8438,1.4062h-2.9063v1.4062h-1.0937v-1.4062h-4.8438q-0.6094,0-0.7812,0.0625-0.1719,0.0781-0.2813,0.25-0.094,0.17188-0.094,0.48438,0,0.23437,0.062,0.60937zm1.4062,7.0547-0.1719,1.4531q-1.2812-0.34375-1.9843-1.2812-0.7032-0.92187-0.7032-2.3594,0-1.8281,1.125-2.8906t3.1407-1.0625q2.0937,0,3.25,1.0781,1.1562,1.0781,1.1562,2.7969,0,1.6562-1.1406,2.7031-1.125,1.0625-3.1719,1.0625-0.125,0-0.375,0v-6.1875q-1.375,0.0781-2.1094,0.76562-0.7187,0.70313-0.7187,1.7344,0,0.78125,0.4062,1.3281,0.4063,0.54688,1.2969,0.85938zm2.2813-4.6094,0,4.625q1.0468-0.0937,1.5625-0.53125,0.8125-0.67187,0.8125-1.7344,0-0.96875-0.6563-1.6406-0.6406-0.65625-1.7187-0.71875zm-4.9532,13.211,1.0469,0q-1.2344-0.78125-1.2344-2.3125,0-1,0.5469-1.8281,0.5469-0.82813,1.5313-1.2969,0.9843-0.45312,2.25-0.45312,1.25,0,2.25,0.40625,1.0156,0.42187,1.5468,1.25,0.5469,0.82812,0.5469,1.8594,0,0.75-0.3125,1.3281-0.3125,0.59375-0.8281,0.95312h4.1094v1.4062h-11.453v-1.3125zm4.1407-4.4375q-1.5938,0-2.3907,0.67188-0.7812,0.67187-0.7812,1.5781,0,0.92188,0.75,1.5625,0.7656,0.65625,2.3125,0.65625,1.7031,0,2.5-0.65625t0.7969-1.625q0-0.9375-0.7657-1.5625-0.7656-0.625-2.4218-0.625z"/>
</svg>
