<?xml version="1.0" encoding="UTF-8" standalone="no"?>
<svg
   xmlns:dc="http://purl.org/dc/elements/1.1/"
   xmlns:cc="http://creativecommons.org/ns#"
   xmlns:rdf="http://www.w3.org/1999/02/22-rdf-syntax-ns#"
   xmlns:svg="http://www.w3.org/2000/svg"
   xmlns="http://www.w3.org/2000/svg"
   xmlns:sodipodi="http://sodipodi.sourceforge.net/DTD/sodipodi-0.dtd"
   xmlns:inkscape="http://www.inkscape.org/namespaces/inkscape"
   id="svg2"
   height="100%"
   viewBox="0 0 464.00067 169.74666"
   width="100%"
   version="1.1"
   stroke-miterlimit="10"
   fill="none"
   inkscape:version="0.47 r22583"
   sodipodi:docname="merge2.svg">
  <sodipodi:namedview
     pagecolor="#ffffff"
     bordercolor="#666666"
     borderopacity="1"
     objecttolerance="10"
     gridtolerance="10"
     guidetolerance="10"
     inkscape:pageopacity="0"
     inkscape:pageshadow="2"
     inkscape:window-width="1920"
     inkscape:window-height="1011"
     id="namedview199"
     showgrid="false"
     inkscape:zoom="1.1724121"
     inkscape:cx="232.00033"
     inkscape:cy="84.87333"
     inkscape:window-x="0"
     inkscape:window-y="24"
     inkscape:window-maximized="1"
     inkscape:current-layer="svg2" />
  <metadata
     id="metadata2283">
    <rdf:RDF>
      <cc:Work
         rdf:about="">
        <dc:format>image/svg+xml</dc:format>
        <dc:type
           rdf:resource="http://purl.org/dc/dcmitype/StillImage" />
        <dc:title />
      </cc:Work>
    </rdf:RDF>
  </metadata>
  <defs
     id="defs2281">
    <inkscape:perspective
       sodipodi:type="inkscape:persp3d"
       inkscape:vp_x="0 : 84.87333 : 1"
       inkscape:vp_y="0 : 1000 : 0"
       inkscape:vp_z="464.00067 : 84.87333 : 1"
       inkscape:persp3d-origin="232.00034 : 56.58222 : 1"
       id="perspective201" />
    <inkscape:perspective
       id="perspective3075"
       inkscape:persp3d-origin="0.5 : 0.33333333 : 1"
       inkscape:vp_z="1 : 0.5 : 1"
       inkscape:vp_y="0 : 1000 : 0"
       inkscape:vp_x="0 : 0.5 : 1"
       sodipodi:type="inkscape:persp3d" />
  </defs>
  <clipPath
     id="g20d314c1df_0_0.0">
    <path
       id="path5"
       clip-rule="nonzero"
       d="M0,0,960,0,960,540,0,540,0,0z" />
  </clipPath>
  <path
     id="path761"
     stroke-linejoin="round"
     d="m148.09,63.47,18.362,0"
     stroke="#595959"
     stroke-linecap="butt"
     stroke-width="1" />
  <path
     id="path765"
     stroke-linejoin="round"
     d="m157.28,53.95,0,19.055"
     stroke="#595959"
     stroke-linecap="butt"
     stroke-width="1" />
  <path
     id="path769"
     stroke-linejoin="round"
     d="m220.45,16.89,15.906,0,0,15.874-15.906,0z"
     stroke="#595959"
     stroke-linecap="butt"
     stroke-width="1" />
  <path
     id="path771"
     fill-rule="evenodd"
     fill="#6aa84f"
     d="m172.65,0.99999,15.906,0,0,15.874-15.906,0z" />
  <path
     id="path773"
     stroke-linejoin="round"
     d="m172.65,0.99999,15.906,0,0,15.874-15.906,0z"
     stroke="#595959"
     stroke-linecap="butt"
     stroke-width="1" />
  <path
     id="path775"
     fill-rule="evenodd"
     fill="#6aa84f"
     d="m172.65,16.89,15.906,0,0,15.874-15.906,0z" />
  <path
     id="path777"
     stroke-linejoin="round"
     d="m172.65,16.89,15.906,0,0,15.874-15.906,0z"
     stroke="#595959"
     stroke-linecap="butt"
     stroke-width="1" />
  <path
     id="path781"
     stroke-linejoin="round"
     d="m188.58,0.99999,15.906,0,0,15.874-15.906,0z"
     stroke="#595959"
     stroke-linecap="butt"
     stroke-width="1" />
  <path
     id="path785"
     stroke-linejoin="round"
     d="m188.58,16.89,15.906,0,0,15.874-15.906,0z"
     stroke="#595959"
     stroke-linecap="butt"
     stroke-width="1" />
  <path
     id="path789"
     stroke-linejoin="round"
     d="m172.65,32.78,15.906,0,0,15.874-15.906,0z"
     stroke="#595959"
     stroke-linecap="butt"
     stroke-width="1" />
  <path
     id="path793"
     stroke-linejoin="round"
     d="m172.65,48.67,15.906,0,0,15.874-15.906,0z"
     stroke="#595959"
     stroke-linecap="butt"
     stroke-width="1" />
  <path
     id="path797"
     stroke-linejoin="round"
     d="m188.58,32.78,15.906,0,0,15.874-15.906,0z"
     stroke="#595959"
     stroke-linecap="butt"
     stroke-width="1" />
  <path
     id="path801"
     stroke-linejoin="round"
     d="m188.58,48.67,15.906,0,0,15.874-15.906,0z"
     stroke="#595959"
     stroke-linecap="butt"
     stroke-width="1" />
  <path
     id="path805"
     stroke-linejoin="round"
     d="m204.52,0.99999,15.906,0,0,15.874-15.906,0z"
     stroke="#595959"
     stroke-linecap="butt"
     stroke-width="1" />
  <path
     id="path809"
     stroke-linejoin="round"
     d="m204.52,16.89,15.906,0,0,15.874-15.906,0z"
     stroke="#595959"
     stroke-linecap="butt"
     stroke-width="1" />
  <path
     id="path813"
     stroke-linejoin="round"
     d="m220.45,0.99999,15.906,0,0,15.874-15.906,0z"
     stroke="#595959"
     stroke-linecap="butt"
     stroke-width="1" />
  <path
     id="path817"
     stroke-linejoin="round"
     d="m204.52,32.78,15.906,0,0,15.874-15.906,0z"
     stroke="#595959"
     stroke-linecap="butt"
     stroke-width="1" />
  <path
     id="path821"
     stroke-linejoin="round"
     d="m204.52,48.67,15.906,0,0,15.874-15.906,0z"
     stroke="#595959"
     stroke-linecap="butt"
     stroke-width="1" />
  <path
     id="path825"
     stroke-linejoin="round"
     d="m220.45,32.78,15.906,0,0,15.874-15.906,0z"
     stroke="#595959"
     stroke-linecap="butt"
     stroke-width="1" />
  <path
     id="path829"
     stroke-linejoin="round"
     d="m220.45,48.67,15.906,0,0,15.874-15.906,0z"
     stroke="#595959"
     stroke-linecap="butt"
     stroke-width="1" />
  <path
     id="path833"
     stroke-linejoin="round"
     d="m236.39,0.99999,15.906,0,0,15.874-15.906,0z"
     stroke="#595959"
     stroke-linecap="butt"
     stroke-width="1" />
  <path
     id="path837"
     stroke-linejoin="round"
     d="m236.39,16.89,15.906,0,0,15.874-15.906,0z"
     stroke="#595959"
     stroke-linecap="butt"
     stroke-width="1" />
  <path
     id="path841"
     stroke-linejoin="round"
     d="m252.32,0.99999,15.906,0,0,15.874-15.906,0z"
     stroke="#595959"
     stroke-linecap="butt"
     stroke-width="1" />
  <path
     id="path845"
     stroke-linejoin="round"
     d="m252.32,16.89,15.906,0,0,15.874-15.906,0z"
     stroke="#595959"
     stroke-linecap="butt"
     stroke-width="1" />
  <path
     id="path849"
     stroke-linejoin="round"
     d="m236.39,32.78,15.906,0,0,15.874-15.906,0z"
     stroke="#595959"
     stroke-linecap="butt"
     stroke-width="1" />
  <path
     id="path851"
     fill-rule="evenodd"
     fill="#6aa84f"
     d="m236.39,48.67,15.906,0,0,15.874-15.906,0z" />
  <path
     id="path853"
     stroke-linejoin="round"
     d="m236.39,48.67,15.906,0,0,15.874-15.906,0z"
     stroke="#595959"
     stroke-linecap="butt"
     stroke-width="1" />
  <path
     id="path855"
     fill-rule="evenodd"
     fill="#6aa84f"
     d="m252.32,32.78,15.906,0,0,15.874-15.906,0z" />
  <path
     id="path857"
     stroke-linejoin="round"
     d="m252.32,32.78,15.906,0,0,15.874-15.906,0z"
     stroke="#595959"
     stroke-linecap="butt"
     stroke-width="1" />
  <path
     id="path861"
     stroke-linejoin="round"
     d="m252.32,48.67,15.906,0,0,15.874-15.906,0z"
     stroke="#595959"
     stroke-linecap="butt"
     stroke-width="1" />
  <path
     id="path865"
     stroke-linejoin="round"
     d="m268.25,0.99999,15.906,0,0,15.874-15.906,0z"
     stroke="#595959"
     stroke-linecap="butt"
     stroke-width="1" />
  <path
     id="path869"
     stroke-linejoin="round"
     d="m268.25,16.89,15.906,0,0,15.874-15.906,0z"
     stroke="#595959"
     stroke-linecap="butt"
     stroke-width="1" />
  <path
     id="path873"
     stroke-linejoin="round"
     d="m284.19,0.99999,15.905,0,0,15.874-15.905,0z"
     stroke="#595959"
     stroke-linecap="butt"
     stroke-width="1" />
  <path
     id="path877"
     stroke-linejoin="round"
     d="m284.19,16.89,15.905,0,0,15.874-15.905,0z"
     stroke="#595959"
     stroke-linecap="butt"
     stroke-width="1" />
  <path
     id="path881"
     stroke-linejoin="round"
     d="m268.25,32.78,15.906,0,0,15.874-15.906,0z"
     stroke="#595959"
     stroke-linecap="butt"
     stroke-width="1" />
  <path
     id="path885"
     stroke-linejoin="round"
     d="m268.25,48.67,15.906,0,0,15.874-15.906,0z"
     stroke="#595959"
     stroke-linecap="butt"
     stroke-width="1" />
  <path
     id="path889"
     stroke-linejoin="round"
     d="m284.19,32.78,15.905,0,0,15.874-15.905,0z"
     stroke="#595959"
     stroke-linecap="butt"
     stroke-width="1" />
  <path
     id="path893"
     stroke-linejoin="round"
     d="m284.19,48.67,15.905,0,0,15.874-15.905,0z"
     stroke="#595959"
     stroke-linecap="butt"
     stroke-width="1" />
  <path
     id="path897"
     stroke-linejoin="round"
     d="m383.87,17.03,15.906,0,0,15.874-15.906,0z"
     stroke="#595959"
     stroke-linecap="butt"
     stroke-width="1" />
  <path
     id="path899"
     fill-rule="evenodd"
     fill="#6aa84f"
     d="m336.06,1.14,15.906,0,0,15.874-15.906,0z" />
  <path
     id="path901"
     stroke-linejoin="round"
     d="m336.06,1.14,15.906,0,0,15.874-15.906,0z"
     stroke="#595959"
     stroke-linecap="butt"
     stroke-width="1" />
  <path
     id="path903"
     fill-rule="evenodd"
     fill="#6aa84f"
     d="m336.06,17.03,15.906,0,0,15.874-15.906,0z" />
  <path
     id="path905"
     stroke-linejoin="round"
     d="m336.06,17.03,15.906,0,0,15.874-15.906,0z"
     stroke="#595959"
     stroke-linecap="butt"
     stroke-width="1" />
  <path
     id="path909"
     stroke-linejoin="round"
     d="m352,1.14,15.905,0,0,15.874-15.905,0z"
     stroke="#595959"
     stroke-linecap="butt"
     stroke-width="1" />
  <path
     id="path913"
     stroke-linejoin="round"
     d="m352,17.03,15.905,0,0,15.874-15.905,0z"
     stroke="#595959"
     stroke-linecap="butt"
     stroke-width="1" />
  <path
     id="path917"
     stroke-linejoin="round"
     d="m336.06,32.92,15.906,0,0,15.874-15.906,0z"
     stroke="#595959"
     stroke-linecap="butt"
     stroke-width="1" />
  <path
     id="path921"
     stroke-linejoin="round"
     d="m336.06,48.81,15.906,0,0,15.874-15.906,0z"
     stroke="#595959"
     stroke-linecap="butt"
     stroke-width="1" />
  <path
     id="path925"
     stroke-linejoin="round"
     d="m352,32.92,15.905,0,0,15.874-15.905,0z"
     stroke="#595959"
     stroke-linecap="butt"
     stroke-width="1" />
  <path
     id="path929"
     stroke-linejoin="round"
     d="m352,48.81,15.905,0,0,15.874-15.905,0z"
     stroke="#595959"
     stroke-linecap="butt"
     stroke-width="1" />
  <path
     id="path933"
     stroke-linejoin="round"
     d="m367.93,1.14,15.905,0,0,15.874-15.905,0z"
     stroke="#595959"
     stroke-linecap="butt"
     stroke-width="1" />
  <path
     id="path937"
     stroke-linejoin="round"
     d="m367.93,17.03,15.905,0,0,15.874-15.905,0z"
     stroke="#595959"
     stroke-linecap="butt"
     stroke-width="1" />
  <path
     id="path941"
     stroke-linejoin="round"
     d="m383.87,1.14,15.906,0,0,15.874-15.906,0z"
     stroke="#595959"
     stroke-linecap="butt"
     stroke-width="1" />
  <path
     id="path945"
     stroke-linejoin="round"
     d="m367.93,32.92,15.905,0,0,15.874-15.905,0z"
     stroke="#595959"
     stroke-linecap="butt"
     stroke-width="1" />
  <path
     id="path949"
     stroke-linejoin="round"
     d="m367.93,48.81,15.905,0,0,15.874-15.905,0z"
     stroke="#595959"
     stroke-linecap="butt"
     stroke-width="1" />
  <path
     id="path953"
     stroke-linejoin="round"
     d="m383.87,32.92,15.906,0,0,15.874-15.906,0z"
     stroke="#595959"
     stroke-linecap="butt"
     stroke-width="1" />
  <path
     id="path957"
     stroke-linejoin="round"
     d="m383.87,48.81,15.906,0,0,15.874-15.906,0z"
     stroke="#595959"
     stroke-linecap="butt"
     stroke-width="1" />
  <path
     id="path961"
     stroke-linejoin="round"
     d="m336.06,64.7,15.906,0,0,15.874-15.906,0z"
     stroke="#595959"
     stroke-linecap="butt"
     stroke-width="1" />
  <path
     id="path965"
     stroke-linejoin="round"
     d="m336.06,80.59,15.906,0,0,15.874-15.906,0z"
     stroke="#595959"
     stroke-linecap="butt"
     stroke-width="1" />
  <path
     id="path969"
     stroke-linejoin="round"
     d="m352,64.7,15.905,0,0,15.874-15.905,0z"
     stroke="#595959"
     stroke-linecap="butt"
     stroke-width="1" />
  <path
     id="path973"
     stroke-linejoin="round"
     d="m352,80.59,15.905,0,0,15.874-15.905,0z"
     stroke="#595959"
     stroke-linecap="butt"
     stroke-width="1" />
  <path
     id="path977"
     stroke-linejoin="round"
     d="m336.06,96.48,15.906,0,0,15.874-15.906,0z"
     stroke="#595959"
     stroke-linecap="butt"
     stroke-width="1" />
  <path
     id="path981"
     stroke-linejoin="round"
     d="m336.06,112.37,15.906,0,0,15.874-15.906,0z"
     stroke="#595959"
     stroke-linecap="butt"
     stroke-width="1" />
  <path
     id="path985"
     stroke-linejoin="round"
     d="m352,96.48,15.905,0,0,15.874-15.905,0z"
     stroke="#595959"
     stroke-linecap="butt"
     stroke-width="1" />
  <path
     id="path989"
     stroke-linejoin="round"
     d="m352,112.37,15.905,0,0,15.874-15.905,0z"
     stroke="#595959"
     stroke-linecap="butt"
     stroke-width="1" />
  <path
     id="path993"
     stroke-linejoin="round"
     d="m367.93,64.7,15.905,0,0,15.874-15.905,0z"
     stroke="#595959"
     stroke-linecap="butt"
     stroke-width="1" />
  <path
     id="path997"
     stroke-linejoin="round"
     d="m383.87,64.7,15.906,0,0,15.874-15.906,0z"
     stroke="#595959"
     stroke-linecap="butt"
     stroke-width="1" />
  <path
     id="path1001"
     stroke-linejoin="round"
     d="m383.87,80.59,15.906,0,0,15.874-15.906,0z"
     stroke="#595959"
     stroke-linecap="butt"
     stroke-width="1" />
  <path
     id="path1005"
     stroke-linejoin="round"
     d="m367.93,96.48,15.905,0,0,15.874-15.905,0z"
     stroke="#595959"
     stroke-linecap="butt"
     stroke-width="1" />
  <path
     id="path1009"
     stroke-linejoin="round"
     d="m367.93,112.37,15.905,0,0,15.874-15.905,0z"
     stroke="#595959"
     stroke-linecap="butt"
     stroke-width="1" />
  <path
     id="path1013"
     stroke-linejoin="round"
     d="m383.87,96.48,15.906,0,0,15.874-15.906,0z"
     stroke="#595959"
     stroke-linecap="butt"
     stroke-width="1" />
  <path
     id="path1017"
     stroke-linejoin="round"
     d="m383.87,112.37,15.906,0,0,15.874-15.906,0z"
     stroke="#595959"
     stroke-linecap="butt"
     stroke-width="1" />
  <path
     id="path1021"
     stroke-linejoin="round"
     d="m399.8,1.14,15.906,0,0,15.874-15.906,0z"
     stroke="#595959"
     stroke-linecap="butt"
     stroke-width="1" />
  <path
     id="path1025"
     stroke-linejoin="round"
     d="m399.8,17.03,15.906,0,0,15.874-15.906,0z"
     stroke="#595959"
     stroke-linecap="butt"
     stroke-width="1" />
  <path
     id="path1029"
     stroke-linejoin="round"
     d="m415.73,1.14,15.906,0,0,15.874-15.906,0z"
     stroke="#595959"
     stroke-linecap="butt"
     stroke-width="1" />
  <path
     id="path1033"
     stroke-linejoin="round"
     d="m415.73,17.03,15.906,0,0,15.874-15.906,0z"
     stroke="#595959"
     stroke-linecap="butt"
     stroke-width="1" />
  <path
     id="path1037"
     stroke-linejoin="round"
     d="m399.8,32.92,15.906,0,0,15.874-15.906,0z"
     stroke="#595959"
     stroke-linecap="butt"
     stroke-width="1" />
  <path
     id="path1041"
     stroke-linejoin="round"
     d="m415.73,48.81,15.906,0,0,15.874-15.906,0z"
     stroke="#595959"
     stroke-linecap="butt"
     stroke-width="1" />
  <path
     id="path1045"
     stroke-linejoin="round"
     d="m431.67,1.14,15.906,0,0,15.874-15.906,0z"
     stroke="#595959"
     stroke-linecap="butt"
     stroke-width="1" />
  <path
     id="path1049"
     stroke-linejoin="round"
     d="m431.67,17.03,15.906,0,0,15.874-15.906,0z"
     stroke="#595959"
     stroke-linecap="butt"
     stroke-width="1" />
  <path
     id="path1053"
     stroke-linejoin="round"
     d="m447.6,1.14,15.905,0,0,15.874-15.905,0z"
     stroke="#595959"
     stroke-linecap="butt"
     stroke-width="1" />
  <path
     id="path1057"
     stroke-linejoin="round"
     d="m447.6,17.03,15.905,0,0,15.874-15.905,0z"
     stroke="#595959"
     stroke-linecap="butt"
     stroke-width="1" />
  <path
     id="path1061"
     stroke-linejoin="round"
     d="m431.67,32.92,15.906,0,0,15.874-15.906,0z"
     stroke="#595959"
     stroke-linecap="butt"
     stroke-width="1" />
  <path
     id="path1065"
     stroke-linejoin="round"
     d="m431.67,48.81,15.906,0,0,15.874-15.906,0z"
     stroke="#595959"
     stroke-linecap="butt"
     stroke-width="1" />
  <path
     id="path1069"
     stroke-linejoin="round"
     d="m447.6,32.92,15.905,0,0,15.874-15.905,0z"
     stroke="#595959"
     stroke-linecap="butt"
     stroke-width="1" />
  <path
     id="path1073"
     stroke-linejoin="round"
     d="m447.6,48.81,15.905,0,0,15.874-15.905,0z"
     stroke="#595959"
     stroke-linecap="butt"
     stroke-width="1" />
  <path
     id="path1077"
     stroke-linejoin="round"
     d="m399.8,80.59,15.906,0,0,15.874-15.906,0z"
     stroke="#595959"
     stroke-linecap="butt"
     stroke-width="1" />
  <path
     id="path1081"
     stroke-linejoin="round"
     d="m415.73,64.7,15.906,0,0,15.874-15.906,0z"
     stroke="#595959"
     stroke-linecap="butt"
     stroke-width="1" />
  <path
     id="path1085"
     stroke-linejoin="round"
     d="m415.73,80.59,15.906,0,0,15.874-15.906,0z"
     stroke="#595959"
     stroke-linecap="butt"
     stroke-width="1" />
  <path
     id="path1089"
     stroke-linejoin="round"
     d="m399.8,96.48,15.906,0,0,15.874-15.906,0z"
     stroke="#595959"
     stroke-linecap="butt"
     stroke-width="1" />
  <path
     id="path1093"
     stroke-linejoin="round"
     d="m399.8,112.37,15.906,0,0,15.874-15.906,0z"
     stroke="#595959"
     stroke-linecap="butt"
     stroke-width="1" />
  <path
     id="path1097"
     stroke-linejoin="round"
     d="m415.73,96.48,15.906,0,0,15.874-15.906,0z"
     stroke="#595959"
     stroke-linecap="butt"
     stroke-width="1" />
  <path
     id="path1099"
     fill-rule="evenodd"
     fill="#6aa84f"
     d="m415.73,112.37,15.906,0,0,15.874-15.906,0z" />
  <path
     id="path1101"
     stroke-linejoin="round"
     d="m415.73,112.37,15.906,0,0,15.874-15.906,0z"
     stroke="#595959"
     stroke-linecap="butt"
     stroke-width="1" />
  <path
     id="path1105"
     stroke-linejoin="round"
     d="m431.67,64.7,15.906,0,0,15.874-15.906,0z"
     stroke="#595959"
     stroke-linecap="butt"
     stroke-width="1" />
  <path
     id="path1109"
     stroke-linejoin="round"
     d="m431.67,80.59,15.906,0,0,15.874-15.906,0z"
     stroke="#595959"
     stroke-linecap="butt"
     stroke-width="1" />
  <path
     id="path1113"
     stroke-linejoin="round"
     d="m447.6,64.7,15.905,0,0,15.874-15.905,0z"
     stroke="#595959"
     stroke-linecap="butt"
     stroke-width="1" />
  <path
     id="path1115"
     fill-rule="evenodd"
     fill="#6aa84f"
     d="m447.6,80.59,15.905,0,0,15.874-15.905,0z" />
  <path
     id="path1117"
     stroke-linejoin="round"
     d="m447.6,80.59,15.905,0,0,15.874-15.905,0z"
     stroke="#595959"
     stroke-linecap="butt"
     stroke-width="1" />
  <path
     id="path1119"
     fill-rule="evenodd"
     fill="#6aa84f"
     d="m431.67,96.48,15.906,0,0,15.874-15.906,0z" />
  <path
     id="path1121"
     stroke-linejoin="round"
     d="m431.67,96.48,15.906,0,0,15.874-15.906,0z"
     stroke="#595959"
     stroke-linecap="butt"
     stroke-width="1" />
  <path
     id="path1123"
     fill-rule="evenodd"
     fill="#6aa84f"
     d="m431.67,112.37,15.906,0,0,15.874-15.906,0z" />
  <path
     id="path1125"
     stroke-linejoin="round"
     d="m431.67,112.37,15.906,0,0,15.874-15.906,0z"
     stroke="#595959"
     stroke-linecap="butt"
     stroke-width="1" />
  <path
     id="path1127"
     fill-rule="evenodd"
     fill="#6aa84f"
     d="m447.6,96.48,15.905,0,0,15.874-15.905,0z" />
  <path
     id="path1129"
     stroke-linejoin="round"
     d="m447.6,96.48,15.905,0,0,15.874-15.905,0z"
     stroke="#595959"
     stroke-linecap="butt"
     stroke-width="1" />
  <path
     id="path1131"
     fill-rule="evenodd"
     fill="#6aa84f"
     d="m447.6,112.37,15.905,0,0,15.874-15.905,0z" />
  <path
     id="path1133"
     stroke-linejoin="round"
     d="m447.6,112.37,15.905,0,0,15.874-15.905,0z"
     stroke="#595959"
     stroke-linecap="butt"
     stroke-width="1" />
  <path
     id="path1137"
     stroke-linejoin="round"
     d="m311.17,59.61,18.268,0"
     stroke="#595959"
     stroke-linecap="butt"
     stroke-width="1" />
  <path
     id="path1141"
     stroke-linejoin="round"
     d="m310.98,72.52,18.268,0"
     stroke="#595959"
     stroke-linecap="butt"
     stroke-width="1" />
  <path
     id="path1143"
     fill-rule="evenodd"
     fill="#6aa84f"
     d="m383.87,48.81,15.906,0,0,15.874-15.906,0z" />
  <path
     id="path1145"
     stroke-linejoin="round"
     d="m383.87,48.81,15.906,0,0,15.874-15.906,0z"
     stroke="#595959"
     stroke-linecap="butt"
     stroke-width="1" />
  <path
     id="path1149"
     stroke-linejoin="round"
     d="m367.93,64.7,15.905,0,0,15.874-15.905,0z"
     stroke="#595959"
     stroke-linecap="butt"
     stroke-width="1" />
  <path
     id="path1153"
     stroke-linejoin="round"
     d="m383.87,64.7,15.906,0,0,15.874-15.906,0z"
     stroke="#595959"
     stroke-linecap="butt"
     stroke-width="1" />
  <path
     id="path1155"
     fill-rule="evenodd"
     fill="#6aa84f"
     d="m399.8,32.92,15.906,0,0,15.874-15.906,0z" />
  <path
     id="path1157"
     stroke-linejoin="round"
     d="m399.8,32.92,15.906,0,0,15.874-15.906,0z"
     stroke="#595959"
     stroke-linecap="butt"
     stroke-width="1" />
  <path
     id="path1159"
     fill-rule="evenodd"
     fill="#6aa84f"
     d="m399.8,48.81,15.906,0,0,15.874-15.906,0z" />
  <path
     id="path1161"
     stroke-linejoin="round"
     d="m399.8,48.81,15.906,0,0,15.874-15.906,0z"
     stroke="#595959"
     stroke-linecap="butt"
     stroke-width="1" />
  <path
     id="path1163"
     fill-rule="evenodd"
     fill="#6aa84f"
     d="m415.73,32.92,15.906,0,0,15.874-15.906,0z" />
  <path
     id="path1165"
     stroke-linejoin="round"
     d="m415.73,32.92,15.906,0,0,15.874-15.906,0z"
     stroke="#595959"
     stroke-linecap="butt"
     stroke-width="1" />
  <path
     id="path1167"
     fill-rule="evenodd"
     fill="#6aa84f"
     d="m415.73,48.81,15.906,0,0,15.874-15.906,0z" />
  <path
     id="path1169"
     stroke-linejoin="round"
     d="m415.73,48.81,15.906,0,0,15.874-15.906,0z"
     stroke="#595959"
     stroke-linecap="butt"
     stroke-width="1" />
  <path
     id="path1171"
     fill-rule="evenodd"
     fill="#6aa84f"
     d="m367.93,80.59,15.906,0,0,15.874-15.906,0z" />
  <path
     id="path1173"
     stroke-linejoin="round"
     d="m367.93,80.59,15.906,0,0,15.874-15.906,0z"
     stroke="#595959"
     stroke-linecap="butt"
     stroke-width="1" />
  <path
     id="path1175"
     fill-rule="evenodd"
     fill="#6aa84f"
     d="m399.8,64.7,15.905,0,0,15.874-15.905,0z" />
  <path
     id="path1177"
     stroke-linejoin="round"
     d="m399.8,64.7,15.905,0,0,15.874-15.905,0z"
     stroke="#595959"
     stroke-linecap="butt"
     stroke-width="1" />
  <path
     id="path1185"
     stroke-linejoin="round"
     d="m12.644,65.46,15.906,0,0,15.874-15.906,0z"
     stroke="#595959"
     stroke-linecap="butt"
     stroke-width="1" />
  <path
     id="path1189"
     stroke-linejoin="round"
     d="m12.644,81.35,15.906,0,0,15.874-15.906,0z"
     stroke="#595959"
     stroke-linecap="butt"
     stroke-width="1" />
  <path
     id="path1193"
     stroke-linejoin="round"
     d="m28.579,65.46,15.906,0,0,15.874-15.906,0z"
     stroke="#595959"
     stroke-linecap="butt"
     stroke-width="1" />
  <path
     id="path1197"
     stroke-linejoin="round"
     d="m28.579,81.35,15.906,0,0,15.874-15.906,0z"
     stroke="#595959"
     stroke-linecap="butt"
     stroke-width="1" />
  <path
     id="path1201"
     stroke-linejoin="round"
     d="m12.644,97.24,15.906,0,0,15.874-15.906,0z"
     stroke="#595959"
     stroke-linecap="butt"
     stroke-width="1" />
  <path
     id="path1205"
     stroke-linejoin="round"
     d="m12.644,113.13,15.906,0,0,15.874-15.906,0z"
     stroke="#595959"
     stroke-linecap="butt"
     stroke-width="1" />
  <path
     id="path1209"
     stroke-linejoin="round"
     d="m28.579,97.24,15.906,0,0,15.874-15.906,0z"
     stroke="#595959"
     stroke-linecap="butt"
     stroke-width="1" />
  <path
     id="path1213"
     stroke-linejoin="round"
     d="m28.579,113.13,15.906,0,0,15.874-15.906,0z"
     stroke="#595959"
     stroke-linecap="butt"
     stroke-width="1" />
  <path
     id="path1217"
     stroke-linejoin="round"
     d="m44.516,65.46,15.906,0,0,15.874-15.906,0z"
     stroke="#595959"
     stroke-linecap="butt"
     stroke-width="1" />
  <path
     id="path1219"
     fill-rule="evenodd"
     fill="#6aa84f"
     d="m44.516,81.35,15.906,0,0,15.874-15.906,0z" />
  <path
     id="path1221"
     stroke-linejoin="round"
     d="m44.516,81.35,15.906,0,0,15.874-15.906,0z"
     stroke="#595959"
     stroke-linecap="butt"
     stroke-width="1" />
  <path
     id="path1225"
     stroke-linejoin="round"
     d="m60.446,65.46,15.906,0,0,15.874-15.906,0z"
     stroke="#595959"
     stroke-linecap="butt"
     stroke-width="1" />
  <path
     id="path1229"
     stroke-linejoin="round"
     d="m60.446,81.35,15.906,0,0,15.874-15.906,0z"
     stroke="#595959"
     stroke-linecap="butt"
     stroke-width="1" />
  <path
     id="path1233"
     stroke-linejoin="round"
     d="m44.516,97.24,15.906,0,0,15.874-15.906,0z"
     stroke="#595959"
     stroke-linecap="butt"
     stroke-width="1" />
  <path
     id="path1237"
     stroke-linejoin="round"
     d="m44.516,113.13,15.906,0,0,15.874-15.906,0z"
     stroke="#595959"
     stroke-linecap="butt"
     stroke-width="1" />
  <path
     id="path1241"
     stroke-linejoin="round"
     d="m60.446,97.24,15.906,0,0,15.874-15.906,0z"
     stroke="#595959"
     stroke-linecap="butt"
     stroke-width="1" />
  <path
     id="path1245"
     stroke-linejoin="round"
     d="m60.446,113.13,15.906,0,0,15.874-15.906,0z"
     stroke="#595959"
     stroke-linecap="butt"
     stroke-width="1" />
  <path
     id="path1247"
     fill-rule="evenodd"
     fill="#6aa84f"
     d="m76.386,65.46,15.906,0,0,15.874-15.906,0z" />
  <path
     id="path1249"
     stroke-linejoin="round"
     d="m76.386,65.46,15.906,0,0,15.874-15.906,0z"
     stroke="#595959"
     stroke-linecap="butt"
     stroke-width="1" />
  <path
     id="path1253"
     stroke-linejoin="round"
     d="m76.386,81.35,15.906,0,0,15.874-15.906,0z"
     stroke="#595959"
     stroke-linecap="butt"
     stroke-width="1" />
  <path
     id="path1257"
     stroke-linejoin="round"
     d="m92.316,65.46,15.906,0,0,15.874-15.906,0z"
     stroke="#595959"
     stroke-linecap="butt"
     stroke-width="1" />
  <path
     id="path1261"
     stroke-linejoin="round"
     d="m92.316,81.35,15.906,0,0,15.874-15.906,0z"
     stroke="#595959"
     stroke-linecap="butt"
     stroke-width="1" />
  <path
     id="path1265"
     stroke-linejoin="round"
     d="m76.386,97.24,15.906,0,0,15.874-15.906,0z"
     stroke="#595959"
     stroke-linecap="butt"
     stroke-width="1" />
  <path
     id="path1269"
     stroke-linejoin="round"
     d="m76.386,113.13,15.906,0,0,15.874-15.906,0z"
     stroke="#595959"
     stroke-linecap="butt"
     stroke-width="1" />
  <path
     id="path1273"
     stroke-linejoin="round"
     d="m92.316,97.24,15.906,0,0,15.874-15.906,0z"
     stroke="#595959"
     stroke-linecap="butt"
     stroke-width="1" />
  <path
     id="path1275"
     fill-rule="evenodd"
     fill="#6aa84f"
     d="m92.316,113.13,15.906,0,0,15.874-15.906,0z" />
  <path
     id="path1277"
     stroke-linejoin="round"
     d="m92.316,113.13,15.906,0,0,15.874-15.906,0z"
     stroke="#595959"
     stroke-linecap="butt"
     stroke-width="1" />
  <path
     id="path1281"
     stroke-linejoin="round"
     d="m108.25,65.46,15.906,0,0,15.874-15.906,0z"
     stroke="#595959"
     stroke-linecap="butt"
     stroke-width="1" />
  <path
     id="path1285"
     stroke-linejoin="round"
     d="m108.25,81.35,15.906,0,0,15.874-15.906,0z"
     stroke="#595959"
     stroke-linecap="butt"
     stroke-width="1" />
  <path
     id="path1289"
     stroke-linejoin="round"
     d="m124.19,65.46,15.906,0,0,15.874-15.906,0z"
     stroke="#595959"
     stroke-linecap="butt"
     stroke-width="1" />
  <path
     id="path1291"
     fill-rule="evenodd"
     fill="#6aa84f"
     d="m124.19,81.35,15.906,0,0,15.874-15.906,0z" />
  <path
     id="path1293"
     stroke-linejoin="round"
     d="m124.19,81.35,15.906,0,0,15.874-15.906,0z"
     stroke="#595959"
     stroke-linecap="butt"
     stroke-width="1" />
  <path
     id="path1295"
     fill-rule="evenodd"
     fill="#6aa84f"
     d="m108.25,97.24,15.906,0,0,15.874-15.906,0z" />
  <path
     id="path1297"
     stroke-linejoin="round"
     d="m108.25,97.24,15.906,0,0,15.874-15.906,0z"
     stroke="#595959"
     stroke-linecap="butt"
     stroke-width="1" />
  <path
     id="path1299"
     fill-rule="evenodd"
     fill="#6aa84f"
     d="m108.25,113.13,15.906,0,0,15.874-15.906,0z" />
  <path
     id="path1301"
     stroke-linejoin="round"
     d="m108.25,113.13,15.906,0,0,15.874-15.906,0z"
     stroke="#595959"
     stroke-linecap="butt"
     stroke-width="1" />
  <path
     id="path1303"
     fill-rule="evenodd"
     fill="#6aa84f"
     d="m124.19,97.24,15.906,0,0,15.874-15.906,0z" />
  <path
     id="path1305"
     stroke-linejoin="round"
     d="m124.19,97.24,15.906,0,0,15.874-15.906,0z"
     stroke="#595959"
     stroke-linecap="butt"
     stroke-width="1" />
  <path
     id="path1307"
     fill-rule="evenodd"
     fill="#6aa84f"
     d="m124.19,113.13,15.906,0,0,15.874-15.906,0z" />
  <path
     id="path1309"
     stroke-linejoin="round"
     d="m124.19,113.13,15.906,0,0,15.874-15.906,0z"
     stroke="#595959"
     stroke-linecap="butt"
     stroke-width="1" />
  <path
     id="path1313"
     stroke-linejoin="round"
     d="m12.644,33.68,15.906,0,0,15.874-15.906,0z"
     stroke="#595959"
     stroke-linecap="butt"
     stroke-width="1" />
  <path
     id="path1317"
     stroke-linejoin="round"
     d="m12.644,49.57,15.906,0,0,15.874-15.906,0z"
     stroke="#595959"
     stroke-linecap="butt"
     stroke-width="1" />
  <path
     id="path1321"
     stroke-linejoin="round"
     d="m28.578,33.68,15.906,0,0,15.874-15.906,0z"
     stroke="#595959"
     stroke-linecap="butt"
     stroke-width="1" />
  <path
     id="path1325"
     stroke-linejoin="round"
     d="m28.578,49.57,15.906,0,0,15.874-15.906,0z"
     stroke="#595959"
     stroke-linecap="butt"
     stroke-width="1" />
  <path
     id="path1329"
     stroke-linejoin="round"
     d="m44.516,33.68,15.906,0,0,15.874-15.906,0z"
     stroke="#595959"
     stroke-linecap="butt"
     stroke-width="1" />
  <path
     id="path1333"
     stroke-linejoin="round"
     d="m44.516,49.57,15.906,0,0,15.874-15.906,0z"
     stroke="#595959"
     stroke-linecap="butt"
     stroke-width="1" />
  <path
     id="path1337"
     stroke-linejoin="round"
     d="m60.446,33.68,15.906,0,0,15.874-15.906,0z"
     stroke="#595959"
     stroke-linecap="butt"
     stroke-width="1" />
  <path
     id="path1341"
     stroke-linejoin="round"
     d="m60.446,49.57,15.906,0,0,15.874-15.906,0z"
     stroke="#595959"
     stroke-linecap="butt"
     stroke-width="1" />
  <path
     id="path1345"
     stroke-linejoin="round"
     d="m76.386,33.68,15.906,0,0,15.874-15.906,0z"
     stroke="#595959"
     stroke-linecap="butt"
     stroke-width="1" />
  <path
     id="path1349"
     stroke-linejoin="round"
     d="m92.316,49.57,15.906,0,0,15.874-15.906,0z"
     stroke="#595959"
     stroke-linecap="butt"
     stroke-width="1" />
  <path
     id="path1353"
     stroke-linejoin="round"
     d="m108.25,33.68,15.906,0,0,15.874-15.906,0z"
     stroke="#595959"
     stroke-linecap="butt"
     stroke-width="1" />
  <path
     id="path1357"
     stroke-linejoin="round"
     d="m108.25,49.57,15.906,0,0,15.874-15.906,0z"
     stroke="#595959"
     stroke-linecap="butt"
     stroke-width="1" />
  <path
     id="path1361"
     stroke-linejoin="round"
     d="m124.19,33.68,15.906,0,0,15.874-15.906,0z"
     stroke="#595959"
     stroke-linecap="butt"
     stroke-width="1" />
  <path
     id="path1365"
     stroke-linejoin="round"
     d="m124.19,49.57,15.906,0,0,15.874-15.906,0z"
     stroke="#595959"
     stroke-linecap="butt"
     stroke-width="1" />
  <path
     id="path1367"
     fill-rule="evenodd"
     fill="#6aa84f"
     d="m60.446,49.57,15.906,0,0,15.874-15.906,0z" />
  <path
     id="path1369"
     stroke-linejoin="round"
     d="m60.446,49.57,15.906,0,0,15.874-15.906,0z"
     stroke="#595959"
     stroke-linecap="butt"
     stroke-width="1" />
  <path
     id="path1371"
     fill-rule="evenodd"
     fill="#6aa84f"
     d="m76.386,33.67,15.906,0,0,15.874-15.906,0z" />
  <path
     id="path1373"
     stroke-linejoin="round"
     d="m76.386,33.67,15.906,0,0,15.874-15.906,0z"
     stroke="#595959"
     stroke-linecap="butt"
     stroke-width="1" />
  <path
     id="path1375"
     fill-rule="evenodd"
     fill="#6aa84f"
     d="m76.386,49.57,15.906,0,0,15.874-15.906,0z" />
  <path
     id="path1377"
     stroke-linejoin="round"
     d="m76.386,49.57,15.906,0,0,15.874-15.906,0z"
     stroke="#595959"
     stroke-linecap="butt"
     stroke-width="1" />
  <path
     id="path1379"
     fill-rule="evenodd"
     fill="#6aa84f"
     d="m92.316,33.67,15.906,0,0,15.874-15.906,0z" />
  <path
     id="path1381"
     stroke-linejoin="round"
     d="m92.316,33.67,15.906,0,0,15.874-15.906,0z"
     stroke="#595959"
     stroke-linecap="butt"
     stroke-width="1" />
  <path
     id="path1383"
     fill-rule="evenodd"
     fill="#6aa84f"
     d="m92.316,49.57,15.906,0,0,15.874-15.906,0z" />
  <path
     id="path1385"
     stroke-linejoin="round"
     d="m92.316,49.57,15.906,0,0,15.874-15.906,0z"
     stroke="#595959"
     stroke-linecap="butt"
     stroke-width="1" />
  <path
     id="path2245"
     stroke-linejoin="round"
     d="m140.09,33,0,96-128,0,0-96z"
     stroke="#980000"
     stroke-linecap="butt"
     stroke-width="2" />
  <path
     id="path2249"
     stroke-linejoin="round"
     d="m172.09,0.99999,0,32,128,0,0-32z"
     stroke="#980000"
     stroke-linecap="butt"
     stroke-width="2" />
  <path
     id="path2259"
     stroke-linejoin="round"
     d="m1,158.01,32,0"
     stroke="#980000"
     stroke-linecap="butt"
     stroke-width="2" />
  <text
     xml:space="preserve"
     style="font-size:18px;font-style:normal;font-weight:normal;fill:#000000;fill-opacity:1;stroke:none;font-family:Arial;-inkscape-font-specification:Arial"
     x="40.732525"
     y="158.94205"
     id="text3063"><tspan
       sodipodi:role="line"
       id="tspan3065"
       x="40.732525"
       y="158.94205">Target points</tspan></text>
</svg>
