<?xml version="1.0" encoding="UTF-8" standalone="no"?>
<svg
   xmlns:dc="http://purl.org/dc/elements/1.1/"
   xmlns:cc="http://creativecommons.org/ns#"
   xmlns:rdf="http://www.w3.org/1999/02/22-rdf-syntax-ns#"
   xmlns:svg="http://www.w3.org/2000/svg"
   xmlns="http://www.w3.org/2000/svg"
   xmlns:sodipodi="http://sodipodi.sourceforge.net/DTD/sodipodi-0.dtd"
   xmlns:inkscape="http://www.inkscape.org/namespaces/inkscape"
   id="svg2"
   height="100%"
   viewBox="0 0 771.9872 466.64331"
   width="100%"
   version="1.1"
   stroke-miterlimit="10"
   fill="none"
   inkscape:version="0.47 r22583"
   sodipodi:docname="pre_proc_and_generate.svg">
  <sodipodi:namedview
     pagecolor="#ffffff"
     bordercolor="#666666"
     borderopacity="1"
     objecttolerance="10"
     gridtolerance="10"
     guidetolerance="10"
     inkscape:pageopacity="0"
     inkscape:pageshadow="2"
     inkscape:window-width="1920"
     inkscape:window-height="1011"
     id="namedview101"
     showgrid="false"
     inkscape:zoom="1.4668149"
     inkscape:cx="480.12024"
     inkscape:cy="195.94416"
     inkscape:window-x="0"
     inkscape:window-y="24"
     inkscape:window-maximized="1"
     inkscape:current-layer="svg2" />
  <metadata
     id="metadata203">
    <rdf:RDF>
      <cc:Work
         rdf:about="">
        <dc:format>image/svg+xml</dc:format>
        <dc:type
           rdf:resource="http://purl.org/dc/dcmitype/StillImage" />
        <dc:title />
      </cc:Work>
    </rdf:RDF>
  </metadata>
  <defs
     id="defs201">
    <inkscape:perspective
       sodipodi:type="inkscape:persp3d"
       inkscape:vp_x="0 : 233.32165 : 1"
       inkscape:vp_y="0 : 1000 : 0"
       inkscape:vp_z="771.9872 : 233.32165 : 1"
       inkscape:persp3d-origin="385.9936 : 155.54777 : 1"
       id="perspective103" />
    <inkscape:perspective
       id="perspective2943"
       inkscape:persp3d-origin="0.5 : 0.33333333 : 1"
       inkscape:vp_z="1 : 0.5 : 1"
       inkscape:vp_y="0 : 1000 : 0"
       inkscape:vp_x="0 : 0.5 : 1"
       sodipodi:type="inkscape:persp3d" />
    <inkscape:perspective
       id="perspective2970"
       inkscape:persp3d-origin="0.5 : 0.33333333 : 1"
       inkscape:vp_z="1 : 0.5 : 1"
       inkscape:vp_y="0 : 1000 : 0"
       inkscape:vp_x="0 : 0.5 : 1"
       sodipodi:type="inkscape:persp3d" />
    <inkscape:perspective
       id="perspective3015"
       inkscape:persp3d-origin="0.5 : 0.33333333 : 1"
       inkscape:vp_z="1 : 0.5 : 1"
       inkscape:vp_y="0 : 1000 : 0"
       inkscape:vp_x="0 : 0.5 : 1"
       sodipodi:type="inkscape:persp3d" />
    <inkscape:perspective
       id="perspective3054"
       inkscape:persp3d-origin="0.5 : 0.33333333 : 1"
       inkscape:vp_z="1 : 0.5 : 1"
       inkscape:vp_y="0 : 1000 : 0"
       inkscape:vp_x="0 : 0.5 : 1"
       sodipodi:type="inkscape:persp3d" />
    <inkscape:perspective
       id="perspective3111"
       inkscape:persp3d-origin="0.5 : 0.33333333 : 1"
       inkscape:vp_z="1 : 0.5 : 1"
       inkscape:vp_y="0 : 1000 : 0"
       inkscape:vp_x="0 : 0.5 : 1"
       sodipodi:type="inkscape:persp3d" />
    <inkscape:perspective
       id="perspective3136"
       inkscape:persp3d-origin="0.5 : 0.33333333 : 1"
       inkscape:vp_z="1 : 0.5 : 1"
       inkscape:vp_y="0 : 1000 : 0"
       inkscape:vp_x="0 : 0.5 : 1"
       sodipodi:type="inkscape:persp3d" />
    <inkscape:perspective
       id="perspective3179"
       inkscape:persp3d-origin="0.5 : 0.33333333 : 1"
       inkscape:vp_z="1 : 0.5 : 1"
       inkscape:vp_y="0 : 1000 : 0"
       inkscape:vp_x="0 : 0.5 : 1"
       sodipodi:type="inkscape:persp3d" />
    <inkscape:perspective
       id="perspective3245"
       inkscape:persp3d-origin="0.5 : 0.33333333 : 1"
       inkscape:vp_z="1 : 0.5 : 1"
       inkscape:vp_y="0 : 1000 : 0"
       inkscape:vp_x="0 : 0.5 : 1"
       sodipodi:type="inkscape:persp3d" />
  </defs>
  <clipPath
     id="p.0">
    <path
       id="path5"
       clip-rule="nonzero"
       d="M0,0,960,0,960,720,0,720,0,0z" />
  </clipPath>
  <path
     id="path11"
     fill-rule="nonzero"
     fill="#cfe2f3"
     d="m679.77,75.531,91.717,0,0,127.58-15.286,15.286-76.43,0z" />
  <path
     id="path13"
     fill-rule="nonzero"
     fill="#a5b4c2"
     d="m756.2,218.39,3.0572-12.229,12.229-3.0573z" />
  <path
     id="path15"
     d="m756.2,218.39,3.0572-12.229,12.229-3.0573-15.286,15.286-76.43,0,0-142.87,91.717,0,0,127.58" />
  <path
     id="path17"
     stroke-linejoin="round"
     d="m756.2,218.39,3.0572-12.229,12.229-3.0573-15.286,15.286-76.43,0,0-142.87,91.717,0,0,127.58"
     stroke="#000"
     stroke-linecap="butt"
     stroke-width="1" />
  <path
     id="path19"
     fill-rule="nonzero"
     fill="#cfe2f3"
     d="m3.2598,37.216,91.717,0,0,127.58-15.286,15.286-76.43,0z" />
  <path
     id="path21"
     fill-rule="nonzero"
     fill="#a5b4c2"
     d="m79.69,180.08,3.0573-12.229,12.229-3.0573z" />
  <path
     id="path23"
     d="m79.69,180.08,3.0573-12.229,12.229-3.0573-15.286,15.286-76.43,0,0-142.87,91.717,0,0,127.58" />
  <path
     id="path25"
     stroke-linejoin="round"
     d="m79.69,180.08,3.0573-12.229,12.229-3.0573-15.286,15.286-76.43,0,0-142.87,91.717,0,0,127.58"
     stroke="#000"
     stroke-linecap="butt"
     stroke-width="1" />
  <path
     id="path27"
     fill-rule="nonzero"
     fill="#cfe2f3"
     d="m320.46,37.216,91.717,0,0,127.58-15.286,15.286-76.43,0z" />
  <path
     id="path29"
     fill-rule="nonzero"
     fill="#a5b4c2"
     d="m396.89,180.08,3.0573-12.229,12.229-3.0573z" />
  <path
     id="path31"
     d="m396.89,180.08,3.0573-12.229,12.229-3.0573-15.286,15.286-76.43,0,0-142.87,91.717,0,0,127.58" />
  <path
     id="path33"
     stroke-linejoin="round"
     d="m396.89,180.08,3.0573-12.229,12.229-3.0573-15.286,15.286-76.43,0,0-142.87,91.717,0,0,127.58"
     stroke="#000"
     stroke-linecap="butt"
     stroke-width="1" />
  <path
     id="path35"
     fill-rule="nonzero"
     fill="#cfe2f3"
     d="m651.36,37.216,91.717,0,0,127.58-15.286,15.286-76.43,0z" />
  <path
     id="path37"
     fill-rule="nonzero"
     fill="#a5b4c2"
     d="m727.79,180.08,3.0573-12.229,12.229-3.0573z" />
  <path
     id="path39"
     d="m727.79,180.08,3.0573-12.229,12.229-3.0573-15.286,15.286-76.43,0,0-142.87,91.717,0,0,127.58" />
  <path
     id="path41"
     stroke-linejoin="round"
     d="m727.79,180.08,3.0573-12.229,12.229-3.0573-15.286,15.286-76.43,0,0-142.87,91.717,0,0,127.58"
     stroke="#000"
     stroke-linecap="butt"
     stroke-width="1" />
  <path
     id="path43"
     d="m118.56,59.295,175.02,0,0,175.34-175.02,0z" />
  <path
     id="path45"
     stroke-linejoin="round"
     d="m118.56,59.295,175.02,0,0,175.34-175.02,0z"
     stroke="#000"
     stroke-linecap="butt"
     stroke-width="2" />
  <path
     id="path61"
     d="m439.06,59.295,175.02,0,0,175.34-175.02,0z" />
  <path
     id="path63"
     stroke-linejoin="round"
     d="m439.06,59.295,175.02,0,0,175.34-175.02,0z"
     stroke="#000"
     stroke-linecap="butt"
     stroke-width="2" />
  <path
     id="path83"
     d="m0,63.184,91.717,0,0,54.551-91.717,0z" />
  <path
     id="path97"
     d="m317.16,63.192,91.717,0,0,54.551-91.717,0z" />
  <path
     id="path109"
     d="m651.36,52.638,91.717,0,0,46.425-91.717,0z" />
  <path
     id="path121"
     d="m679.77,171.96,91.717,0,0,41.795-91.717,0z" />
  <path
     id="path137"
     fill-rule="nonzero"
     fill="#cfe2f3"
     d="m365.62,47.528-16.421-11.606,5.8031,0c-17.28-20.498-77.65-34.819-146.79-34.819h11.606c69.134,0,129.51,14.321,146.8,34.819h5.8032z" />
  <path
     id="path139"
     fill-rule="nonzero"
     fill="#a5b4c2"
     d="m214.01,1.1373,0,0c-81.41,0.955-145.8,21.443-145.8,46.391h-11.606c0-12.621,16.781-24.698,46.479-33.45,29.7-8.7517,69.75-13.424,110.93-12.941z" />
  <path
     id="path141"
     d="m214.01,1.1373,0,0c-81.41,0.955-145.8,21.443-145.8,46.391h-11.606c0-25.64,67.879-46.425,151.61-46.425h11.606c69.134,0,129.51,14.321,146.8,34.819h5.8032l-6.7921,11.606-16.421-11.606h5.8031c-17.29-20.498-77.66-34.819-146.8-34.819" />
  <path
     id="path143"
     stroke-linejoin="round"
     d="m214.01,1.1373,0,0c-81.41,0.955-145.8,21.443-145.8,46.391h-11.606c0-25.64,67.879-46.425,151.61-46.425h11.606c69.134,0,129.51,14.321,146.8,34.819h5.8032l-6.7921,11.606-16.421-11.606h5.8031c-17.29-20.498-77.66-34.819-146.8-34.819"
     stroke="#000"
     stroke-linecap="butt"
     stroke-width="1" />
  <path
     id="path145"
     d="m118.56,309.07,495.53,0,0,156.57-495.53,0z" />
  <path
     id="path147"
     stroke-linejoin="round"
     d="m118.56,309.07,495.53,0,0,156.57-495.53,0z"
     stroke="#000"
     stroke-linecap="butt"
     stroke-width="2" />
  <path
     id="path173"
     d="m123.45,336.74,186.93,0,0,128.91-186.93,0z" />
  <path
     id="path187"
     d="m206.88,233.78-9.61,102.93" />
  <path
     id="path189"
     stroke-linejoin="round"
     d="m206.88,233.78-9.0487,96.955"
     stroke="#000"
     stroke-linecap="butt"
     stroke-width="1" />
  <path
     id="path191"
     d="m196.19,330.58,1.2229,4.6719,2.0663-4.365z"
     fill-rule="evenodd"
     stroke="#000"
     stroke-linecap="butt"
     stroke-width="1"
     fill="#000" />
  <path
     id="path193"
     d="m526.83,234.64-26.4,101.2" />
  <path
     id="path195"
     stroke-linejoin="round"
     d="m526.83,234.64-24.879,95.391"
     stroke="#000"
     stroke-linecap="butt"
     stroke-width="1" />
  <path
     id="path197"
     d="m500.35,329.62,0.453,4.8081,2.7435-3.9744z"
     fill-rule="evenodd"
     stroke="#000"
     stroke-linecap="butt"
     stroke-width="1"
     fill="#000" />
  <path
     id="path137-4"
     fill-rule="nonzero"
     fill="#cfe2f3"
     d="m673.95,46.925-16.421-11.606,5.8031,0c-17.28-20.498-77.65-34.819-146.79-34.819h11.606c69.134,0,129.51,14.321,146.8,34.819h5.8032z" />
  <path
     id="path139-1"
     fill-rule="nonzero"
     fill="#a5b4c2"
     d="m522.34,0.53399,0,0c-81.41,0.95498-145.8,21.443-145.8,46.391h-11.606c0-12.621,16.781-24.698,46.479-33.45,29.7-8.7517,69.75-13.424,110.93-12.941z" />
  <path
     id="path141-8"
     d="m522.34,0.53399,0,0c-81.41,0.95498-145.8,21.443-145.8,46.391h-11.606c0-25.64,67.879-46.425,151.61-46.425h11.606c69.134,0,129.51,14.321,146.8,34.819h5.8032l-6.7921,11.606-16.421-11.606h5.8031c-17.29-20.498-77.66-34.819-146.8-34.819" />
  <path
     id="path143-9"
     stroke-linejoin="round"
     d="m522.34,0.53399,0,0c-81.41,0.95498-145.8,21.443-145.8,46.391h-11.606c0-25.64,67.879-46.425,151.61-46.425h11.606c69.134,0,129.51,14.321,146.8,34.819h5.8032l-6.7921,11.606-16.421-11.606h5.8031c-17.29-20.498-77.66-34.819-146.8-34.819"
     stroke="#000"
     stroke-linecap="butt"
     stroke-width="1" />
  <text
     xml:space="preserve"
     style="font-size:18.00000041;font-style:normal;font-weight:normal;fill:#000000;fill-opacity:1;stroke:none;font-family:Arial;-inkscape-font-specification:Arial"
     x="125.44186"
     y="78.727974"
     id="text2909"><tspan
       sodipodi:role="line"
       id="tspan2911"
       x="125.44186"
       y="78.727974">pre-processing:</tspan></text>
  <text
     xml:space="preserve"
     style="font-size:18px;font-style:normal;font-weight:normal;fill:#000000;fill-opacity:1;stroke:none;font-family:Arial;-inkscape-font-specification:Arial"
     x="137.71335"
     y="114.86067"
     id="text2913"><tspan
       sodipodi:role="line"
       x="137.71335"
       y="114.86067"
       style="font-size:16px;font-style:italic;font-weight:normal;font-family:Arial;-inkscape-font-specification:Arial Italic"
       id="tspan2931">o    source specific</tspan><tspan
       sodipodi:role="line"
       x="137.71335"
       y="134.86067"
       id="tspan2921"
       style="font-size:16px;font-style:italic;font-weight:normal;font-family:Arial;-inkscape-font-specification:Arial Italic">o    target</tspan><tspan
       sodipodi:role="line"
       x="137.71335"
       y="154.86067"
       id="tspan2923"
       style="font-size:16px;font-style:italic;font-weight:normal;font-family:Arial;-inkscape-font-specification:Arial Italic">      domain/model</tspan><tspan
       sodipodi:role="line"
       x="137.71335"
       y="174.86067"
       id="tspan2925"
       style="font-size:16px;font-style:italic;font-weight:normal;font-family:Arial;-inkscape-font-specification:Arial Italic">      independent</tspan></text>
  <text
     xml:space="preserve"
     style="font-size:16px;font-style:normal;font-weight:normal;fill:#000000;fill-opacity:1;stroke:none;font-family:Arial;-inkscape-font-specification:Arial"
     x="163.96069"
     y="169.05975"
     id="text2927"
     transform="translate(0,-5.5271343e-6)"><tspan
       sodipodi:role="line"
       id="tspan2929"
       x="163.96069"
       y="169.05975" /></text>
  <text
     xml:space="preserve"
     style="font-size:18px;font-style:normal;font-weight:normal;fill:#000000;fill-opacity:1;stroke:none;font-family:Arial;-inkscape-font-specification:Arial"
     x="22.334225"
     y="78.163193"
     id="text2909-3"><tspan
       sodipodi:role="line"
       id="tspan2911-3"
       x="22.334225"
       y="78.163193">data</tspan><tspan
       sodipodi:role="line"
       x="22.334225"
       y="100.66319"
       id="tspan2960">source</tspan></text>
  <text
     xml:space="preserve"
     style="font-size:18px;font-style:normal;font-weight:normal;fill:#000000;fill-opacity:1;stroke:none;font-family:Arial;-inkscape-font-specification:Arial"
     x="17.844463"
     y="121.13728"
     id="text2913-4"><tspan
       sodipodi:role="line"
       x="17.844463"
       y="121.13728"
       id="tspan2925-3"
       style="font-size:14px;font-style:italic;font-weight:normal;font-family:Arial;-inkscape-font-specification:Arial Italic">(in format</tspan><tspan
       sodipodi:role="line"
       x="17.844463"
       y="138.63728"
       style="font-size:14px;font-style:italic;font-weight:normal;font-family:Arial;-inkscape-font-specification:Arial Italic"
       id="tspan3005">provided)</tspan></text>
  <text
     xml:space="preserve"
     style="font-size:18px;font-style:normal;font-weight:normal;fill:#000000;fill-opacity:1;stroke:none;font-family:Arial;-inkscape-font-specification:Arial"
     x="340.42648"
     y="86.865875"
     id="text2909-3-0"><tspan
       sodipodi:role="line"
       id="tspan2911-3-6"
       x="340.42648"
       y="86.865875">ancil</tspan><tspan
       sodipodi:role="line"
       x="340.42648"
       y="109.36588"
       id="tspan2960-7">source</tspan></text>
  <text
     xml:space="preserve"
     style="font-size:18px;font-style:normal;font-weight:normal;fill:#000000;fill-opacity:1;stroke:none;font-family:Arial;-inkscape-font-specification:Arial"
     x="335.93671"
     y="129.83997"
     id="text2913-4-8"><tspan
       sodipodi:role="line"
       x="335.93671"
       y="129.83997"
       style="font-size:14px;font-style:italic;font-weight:normal;font-family:Arial;-inkscape-font-specification:Arial Italic"
       id="tspan3005-1">(NetCDF)</tspan></text>
  <text
     xml:space="preserve"
     style="font-size:18px;font-style:normal;font-weight:normal;fill:#000000;fill-opacity:1;stroke:none;font-family:Arial;-inkscape-font-specification:Arial"
     x="453.22986"
     y="86.64534"
     id="text2909-7"><tspan
       sodipodi:role="line"
       id="tspan2911-0"
       x="453.22986"
       y="86.64534">ancillary</tspan><tspan
       sodipodi:role="line"
       x="453.22986"
       y="109.14534"
       id="tspan3086">generation:</tspan></text>
  <text
     xml:space="preserve"
     style="font-size:18px;font-style:normal;font-weight:normal;fill:#000000;fill-opacity:1;stroke:none;font-family:Arial;-inkscape-font-specification:Arial"
     x="465.5014"
     y="128.77806"
     id="text2913-5"><tspan
       sodipodi:role="line"
       x="465.5014"
       y="128.77806"
       id="tspan2921-4"
       style="font-size:16px;font-style:italic;font-weight:normal;font-family:Arial;-inkscape-font-specification:Arial Italic">o    produce field</tspan><tspan
       sodipodi:role="line"
       x="465.5014"
       y="148.77806"
       style="font-size:16px;font-style:italic;font-weight:normal;font-family:Arial;-inkscape-font-specification:Arial Italic"
       id="tspan3090">      on any target</tspan><tspan
       sodipodi:role="line"
       x="465.5014"
       y="168.77806"
       style="font-size:16px;font-style:italic;font-weight:normal;font-family:Arial;-inkscape-font-specification:Arial Italic"
       id="tspan3092">      domain</tspan><tspan
       sodipodi:role="line"
       x="465.5014"
       y="188.77806"
       style="font-size:16px;font-style:italic;font-weight:normal;font-family:Arial;-inkscape-font-specification:Arial Italic"
       id="tspan3094">o    data source</tspan><tspan
       sodipodi:role="line"
       x="465.5014"
       y="208.77806"
       id="tspan2925-8"
       style="font-size:16px;font-style:italic;font-weight:normal;font-family:Arial;-inkscape-font-specification:Arial Italic">      independent        </tspan></text>
  <text
     xml:space="preserve"
     style="font-size:18px;font-style:normal;font-weight:normal;fill:#000000;fill-opacity:1;stroke:none;font-family:Arial;-inkscape-font-specification:Arial"
     x="689.77734"
     y="201.65714"
     id="text2913-4-8-7"><tspan
       sodipodi:role="line"
       x="689.77734"
       y="201.65714"
       style="font-size:14px;font-style:italic;font-weight:normal;font-family:Arial;-inkscape-font-specification:Arial Italic"
       id="tspan3005-1-0">(NetCDF)</tspan></text>
  <text
     xml:space="preserve"
     style="font-size:18px;font-style:normal;font-weight:normal;fill:#000000;fill-opacity:1;stroke:none;font-family:Arial;-inkscape-font-specification:Arial"
     x="665.28003"
     y="85.50238"
     id="text2909-3-7"><tspan
       sodipodi:role="line"
       x="665.28003"
       y="85.50238"
       id="tspan2960-6">ancil file</tspan></text>
  <text
     xml:space="preserve"
     style="font-size:18px;font-style:normal;font-weight:normal;fill:#000000;fill-opacity:1;stroke:none;font-family:Arial;-inkscape-font-specification:Arial"
     x="665.5625"
     y="111.43274"
     id="text2913-4-5"><tspan
       sodipodi:role="line"
       x="665.5625"
       y="111.43274"
       style="font-size:14px;font-style:italic;font-weight:normal;font-family:Arial;-inkscape-font-specification:Arial Italic"
       id="tspan3005-19">(UM/F03</tspan><tspan
       sodipodi:role="line"
       x="665.5625"
       y="128.93274"
       style="font-size:14px;font-style:italic;font-weight:normal;font-family:Arial;-inkscape-font-specification:Arial Italic"
       id="tspan3169">format)</tspan></text>
  <text
     xml:space="preserve"
     style="font-size:18px;font-style:normal;font-weight:normal;fill:#000000;fill-opacity:1;stroke:none;font-family:Arial;-inkscape-font-specification:Arial"
     x="297.65964"
     y="333.39182"
     id="text2909-7-9"><tspan
       sodipodi:role="line"
       x="297.65964"
       y="333.39182"
       id="tspan3086-0">Ancil Tool Kit</tspan></text>
  <text
     xml:space="preserve"
     style="font-size:18px;font-style:normal;font-weight:normal;fill:#000000;fill-opacity:1;stroke:none;font-family:Arial;-inkscape-font-specification:Arial"
     x="161.99159"
     y="375.52454"
     id="text2913-5-3"><tspan
       sodipodi:role="line"
       x="161.99159"
       y="375.52454"
       id="tspan2925-8-3"
       style="font-size:16px;font-style:italic;font-weight:normal;font-family:Arial;-inkscape-font-specification:Arial Italic">o    I/O</tspan><tspan
       sodipodi:role="line"
       x="161.99159"
       y="395.52454"
       style="font-size:16px;font-style:italic;font-weight:normal;font-family:Arial;-inkscape-font-specification:Arial Italic"
       id="tspan3233">o    decomposition</tspan><tspan
       sodipodi:role="line"
       x="161.99159"
       y="415.52454"
       style="font-size:16px;font-style:italic;font-weight:normal;font-family:Arial;-inkscape-font-specification:Arial Italic"
       id="tspan3235">o    metadata tidy       </tspan></text>
  <text
     xml:space="preserve"
     style="font-size:18px;font-style:normal;font-weight:normal;fill:#000000;fill-opacity:1;stroke:none;font-family:Arial;-inkscape-font-specification:Arial"
     x="426.00757"
     y="356.02078"
     id="text2913-5-3-4"><tspan
       sodipodi:role="line"
       x="426.00757"
       y="356.02078"
       id="tspan2925-8-3-3"
       style="font-size:16px;font-style:italic;font-weight:normal;font-family:Arial;-inkscape-font-specification:Arial Italic">o    I/O</tspan><tspan
       sodipodi:role="line"
       x="426.00757"
       y="376.02078"
       style="font-size:16px;font-style:italic;font-weight:normal;font-family:Arial;-inkscape-font-specification:Arial Italic"
       id="tspan3233-4">o    decomposition</tspan><tspan
       sodipodi:role="line"
       x="426.00757"
       y="396.02078"
       style="font-size:16px;font-style:italic;font-weight:normal;font-family:Arial;-inkscape-font-specification:Arial Italic"
       id="tspan3268">o    regrid</tspan><tspan
       sodipodi:role="line"
       x="426.00757"
       y="416.02078"
       style="font-size:16px;font-style:italic;font-weight:normal;font-family:Arial;-inkscape-font-specification:Arial Italic"
       id="tspan3270">o    fill land</tspan><tspan
       sodipodi:role="line"
       x="426.00757"
       y="436.02078"
       style="font-size:16px;font-style:italic;font-weight:normal;font-family:Arial;-inkscape-font-specification:Arial Italic"
       id="tspan3235-4">o    merge</tspan></text>
</svg>
