<?xml version="1.0" encoding="UTF-8" standalone="no"?>
<svg id="svg2" xmlns:rdf="http://www.w3.org/1999/02/22-rdf-syntax-ns#" xmlns="http://www.w3.org/2000/svg" height="100%" width="100%" version="1.1" stroke-miterlimit="10" xmlns:cc="http://creativecommons.org/ns#" xmlns:dc="http://purl.org/dc/elements/1.1/" viewBox="0 0 251.15426 184.10354" fill="none">
 <metadata id="metadata403">
  <rdf:RDF>
   <cc:Work rdf:about="">
    <dc:format>image/svg+xml</dc:format>
    <dc:type rdf:resource="http://purl.org/dc/dcmitype/StillImage"/>
    <dc:title/>
   </cc:Work>
  </rdf:RDF>
 </metadata>
 <defs id="defs401"></defs>
 <clipPath id="g1bc49272f1_0_65.0">
  <path id="path5" clip-rule="nonzero" d="M0,0,960,0,960,540,0,540,0,0z"/>
 </clipPath>
 <path id="path45" fill-rule="evenodd" fill="#EEE" d="m0.5,0.5,26.898,0,0,25.858-26.898,0z"/>
 <path id="path47" stroke-linejoin="round" d="m0.5,0.5,26.898,0,0,25.858-26.898,0z" stroke="#595959" stroke-linecap="butt" stroke-width="1"/>
 <path id="path49" fill-rule="evenodd" fill="#EEE" d="m0.5,26.367,26.898,0,0,25.858-26.898,0z"/>
 <path id="path51" stroke-linejoin="round" d="m0.5,26.367,26.898,0,0,25.858-26.898,0z" stroke="#595959" stroke-linecap="butt" stroke-width="1"/>
 <path id="path53" fill-rule="evenodd" fill="#EEE" d="m27.398,0.5,26.898,0,0,25.858-26.898,0z"/>
 <path id="path55" stroke-linejoin="round" d="m27.398,0.5,26.898,0,0,25.858-26.898,0z" stroke="#595959" stroke-linecap="butt" stroke-width="1"/>
 <path id="path57" fill-rule="evenodd" fill="#EEE" d="m27.398,26.367,26.898,0,0,25.858-26.898,0z"/>
 <path id="path59" stroke-linejoin="round" d="m27.398,26.367,26.898,0,0,25.858-26.898,0z" stroke="#595959" stroke-linecap="butt" stroke-width="1"/>
 <path id="path77" fill-rule="evenodd" fill="#EEE" d="m0.5,52.232,26.898,0,0,25.858-26.898,0z"/>
 <path id="path79" stroke-linejoin="round" d="m0.5,52.232,26.898,0,0,25.858-26.898,0z" stroke="#595959" stroke-linecap="butt" stroke-width="1"/>
 <path id="path81" fill-rule="evenodd" fill="#EEE" d="m0.5,78.099,26.898,0,0,25.858-26.898,0z"/>
 <path id="path83" stroke-linejoin="round" d="m0.5,78.099,26.898,0,0,25.858-26.898,0z" stroke="#595959" stroke-linecap="butt" stroke-width="1"/>
 <path id="path85" fill-rule="evenodd" fill="#EEE" d="m27.398,52.232,26.898,0,0,25.858-26.898,0z"/>
 <path id="path87" stroke-linejoin="round" d="m27.398,52.232,26.898,0,0,25.858-26.898,0z" stroke="#595959" stroke-linecap="butt" stroke-width="1"/>
 <path id="path89" fill-rule="evenodd" fill="#EEE" d="m27.398,78.099,26.898,0,0,25.858-26.898,0z"/>
 <path id="path91" stroke-linejoin="round" d="m27.398,78.099,26.898,0,0,25.858-26.898,0z" stroke="#595959" stroke-linecap="butt" stroke-width="1"/>
 <path id="path93" fill-rule="evenodd" fill="#EEE" d="m54.295,0.5,26.898,0,0,25.858-26.898,0z"/>
 <path id="path95" stroke-linejoin="round" d="m54.295,0.5,26.898,0,0,25.858-26.898,0z" stroke="#595959" stroke-linecap="butt" stroke-width="1"/>
 <path id="path97" fill-rule="evenodd" fill="#EEE" d="m54.295,26.367,26.898,0,0,25.858-26.898,0z"/>
 <path id="path99" stroke-linejoin="round" d="m54.295,26.367,26.898,0,0,25.858-26.898,0z" stroke="#595959" stroke-linecap="butt" stroke-width="1"/>
 <path id="path101" fill-rule="evenodd" fill="#EEE" d="m81.193,0.5,26.898,0,0,25.858-26.898,0z"/>
 <path id="path103" stroke-linejoin="round" d="m81.193,0.5,26.898,0,0,25.858-26.898,0z" stroke="#595959" stroke-linecap="butt" stroke-width="1"/>
 <path id="path105" fill-rule="evenodd" fill="#EEE" d="m81.193,26.367,26.898,0,0,25.858-26.898,0z"/>
 <path id="path107" stroke-linejoin="round" d="m81.193,26.367,26.898,0,0,25.858-26.898,0z" stroke="#595959" stroke-linecap="butt" stroke-width="1"/>
 <path id="path109" fill-rule="evenodd" fill="#EEE" d="m54.295,52.232,26.898,0,0,25.858-26.898,0z"/>
 <path id="path111" stroke-linejoin="round" d="m54.295,52.232,26.898,0,0,25.858-26.898,0z" stroke="#595959" stroke-linecap="butt" stroke-width="1"/>
 <path id="path113" fill-rule="evenodd" fill="#EEE" d="m54.295,78.099,26.898,0,0,25.858-26.898,0z"/>
 <path id="path115" stroke-linejoin="round" d="m54.295,78.099,26.898,0,0,25.858-26.898,0z" stroke="#595959" stroke-linecap="butt" stroke-width="1"/>
 <path id="path117" fill-rule="evenodd" fill="#EEE" d="m81.193,52.232,26.898,0,0,25.858-26.898,0z"/>
 <path id="path119" stroke-linejoin="round" d="m81.193,52.232,26.898,0,0,25.858-26.898,0z" stroke="#595959" stroke-linecap="butt" stroke-width="1"/>
 <path id="path121" fill-rule="evenodd" fill="#EEE" d="m81.193,78.099,26.898,0,0,25.858-26.898,0z"/>
 <path id="path123" stroke-linejoin="round" d="m81.193,78.099,26.898,0,0,25.858-26.898,0z" stroke="#595959" stroke-linecap="butt" stroke-width="1"/>
 <path id="path335" stroke-linejoin="round" d="m112.74,50.671,25.024,0" stroke="#595959" stroke-linecap="butt" stroke-width="1"/>
 <path id="path337" d="m137.77,52.322,4.5381-1.6517-4.5381-1.6517z" fill-rule="evenodd" stroke="#595959" stroke-linecap="butt" stroke-width="1" fill="#595959"/>
 <path id="path369" fill-rule="nonzero" fill="#000" d="m14.496,145.63,1.6875-0.14062q0.125,1.0156,0.5625,1.6719,0.4375,0.65625,1.3594,1.0625,0.9375,0.40625,2.0938,0.40625,1.0312,0,1.8125-0.3125,0.79688-0.3125,1.1875-0.84375t0.39062-1.1562q0-0.64062-0.375-1.1094-0.375-0.48438-1.2344-0.8125-0.54688-0.21875-2.4219-0.65625-1.875-0.45313-2.625-0.85938-0.96875-0.51562-1.4531-1.2656-0.46875-0.75-0.46875-1.6875,0-1.0312,0.57812-1.9219,0.59375-0.90625,1.7031-1.3594,1.125-0.46875,2.5-0.46875,1.5156,0,2.6719,0.48437,1.1562,0.48438,1.7656,1.4375,0.625,0.9375,0.67188,2.1406l-1.7188,0.125q-0.14062-1.2812-0.95312-1.9375-0.79688-0.67188-2.3594-0.67188-1.625,0-2.375,0.60938-0.75,0.59375-0.75,1.4375,0,0.73437,0.53125,1.2031,0.51562,0.46875,2.7031,0.96875,2.2031,0.5,3.0156,0.875,1.1875,0.54688,1.75,1.3906,0.57812,0.82812,0.57812,1.9219t-0.625,2.0625q-0.625,0.95313-1.7969,1.4844-1.1562,0.53125-2.6094,0.53125-1.8438,0-3.0938-0.53125-1.25-0.54688-1.9688-1.625-0.70312-1.0781-0.73438-2.4531zm12.209-0.54687q0-2.7344,1.5312-4.0625,1.2656-1.0938,3.0938-1.0938,2.0312,0,3.3125,1.3438,1.2969,1.3281,1.2969,3.6719,0,1.9062-0.57812,3-0.5625,1.0781-1.6562,1.6875-1.0781,0.59375-2.375,0.59375-2.0625,0-3.3438-1.3281-1.2812-1.3281-1.2812-3.8125zm1.7188,0q0,1.8906,0.82812,2.8281t2.0781,0.9375,2.0625-0.9375q0.82812-0.95312,0.82812-2.8906,0-1.8281-0.82812-2.7656t-2.0625-0.9375q-1.25,0-2.0781,0.9375-0.82812,0.9375-0.82812,2.8281zm15.735,4.9219,0-1.4531q-1.1406,1.6719-3.125,1.6719-0.85938,0-1.625-0.32812-0.75-0.34375-1.125-0.84375-0.35938-0.5-0.51562-1.2344-0.09375-0.5-0.09375-1.5625v-6.1094h1.6719v5.4688q0,1.3125,0.09375,1.7656,0.15625,0.65625,0.67188,1.0312,0.51562,0.375,1.2656,0.375,0.75,0,1.4062-0.375,0.65625-0.39062,0.92188-1.0469,0.28125-0.67188,0.28125-1.9375v-5.2812h1.6719v9.8594h-1.5zm3.907,0,0-9.8594,1.5,0,0,1.5q0.57813-1.0469,1.0625-1.375,0.48438-0.34375,1.0781-0.34375,0.84375,0,1.7188,0.54687l-0.57813,1.5469q-0.60937-0.35938-1.2344-0.35938-0.54688,0-0.98438,0.32813-0.42187,0.32812-0.60937,0.90625-0.28125,0.89062-0.28125,1.9531v5.1562h-1.6719zm12.666-3.6094,1.6406,0.21875q-0.26563,1.6875-1.375,2.6562-1.1094,0.95312-2.7344,0.95312-2.0156,0-3.25-1.3125-1.2188-1.3281-1.2188-3.7969,0-1.5938,0.51563-2.7812,0.53125-1.2031,1.6094-1.7969,1.0938-0.60937,2.3594-0.60937,1.6094,0,2.625,0.8125t1.3125,2.3125l-1.625,0.25q-0.23438-1-0.82813-1.5t-1.4219-0.5q-1.2656,0-2.0625,0.90625-0.78125,0.90625-0.78125,2.8594,0,1.9844,0.76562,2.8906,0.76563,0.89062,1.9844,0.89062,0.98437,0,1.6406-0.59375,0.65625-0.60937,0.84375-1.8594zm9.6406,0.4375,1.7188,0.21875q-0.40625,1.5-1.5156,2.3438-1.0938,0.82812-2.8125,0.82812-2.1562,0-3.4219-1.3281-1.2656-1.3281-1.2656-3.7344,0-2.4844,1.2656-3.8594,1.2812-1.375,3.3281-1.375,1.9844,0,3.2344,1.3438t1.25,3.7969q0,0.14063-0.0156,0.4375h-7.3438q0.0937,1.625,0.92188,2.4844,0.82812,0.85937,2.0625,0.85937,0.90625,0,1.5469-0.46875,0.65625-0.48437,1.0469-1.5469zm-5.4844-2.7031,5.5,0q-0.10937-1.2344-0.625-1.8594-0.79687-0.96875-2.0781-0.96875-1.1406,0-1.9375,0.78125-0.78125,0.76562-0.85938,2.0469z"/>
 <path id="path373" fill-rule="nonzero" fill="#000" d="m165.42,146.73,0-12-4.4688,0,0-1.5938,10.766,0,0,1.5938-4.5,0,0,12-1.7969,0zm14.162-1.2188q-0.9375,0.79687-1.7969,1.125-0.85937,0.3125-1.8438,0.3125-1.6094,0-2.4844-0.78125-0.875-0.79688-0.875-2.0312,0-0.73438,0.32812-1.3281,0.32813-0.59375,0.85938-0.95312,0.53125-0.35938,1.2031-0.54688,0.5-0.14062,1.4844-0.25,2.0312-0.25,2.9844-0.57812,0-0.34375,0-0.4375,0-1.0156-0.46875-1.4375-0.64062-0.5625-1.9062-0.5625-1.1719,0-1.7344,0.40625t-0.82813,1.4688l-1.6406-0.23438q0.23437-1.0469,0.73437-1.6875,0.51563-0.64062,1.4688-0.98437,0.96875-0.35938,2.25-0.35938,1.2656,0,2.0469,0.29688,0.78125,0.29687,1.1562,0.75,0.375,0.45312,0.51562,1.1406,0.0937,0.42188,0.0937,1.5312v2.2344q0,2.3281,0.0937,2.9531,0.10938,0.60938,0.4375,1.1719h-1.75q-0.26562-0.51563-0.32812-1.2188zm-0.14063-3.7188q-0.90625,0.35937-2.7344,0.625-1.0312,0.14062-1.4531,0.32812-0.42187,0.1875-0.65625,0.54688-0.23437,0.35937-0.23437,0.79687,0,0.67188,0.5,1.125,0.51562,0.4375,1.4844,0.4375,0.96875,0,1.7188-0.42187,0.75-0.4375,1.1094-1.1562,0.26562-0.57813,0.26562-1.6719v-0.60937zm4.0632,4.9375,0-9.8594,1.5,0,0,1.5q0.57812-1.0469,1.0625-1.375,0.48437-0.34375,1.0781-0.34375,0.84375,0,1.7188,0.54688l-0.57812,1.5469q-0.60938-0.35937-1.2344-0.35937-0.54687,0-0.98437,0.32812-0.42188,0.32813-0.60938,0.90625-0.28125,0.89063-0.28125,1.9531v5.1562h-1.6719zm5.9314,0.8125,1.6094,0.25q0.10938,0.75,0.57813,1.0938,0.60937,0.45312,1.6875,0.45312,1.1719,0,1.7969-0.46875,0.625-0.45312,0.85938-1.2812,0.125-0.51562,0.10937-2.1562-1.0938,1.2969-2.7188,1.2969-2.0312,0-3.1562-1.4688-1.1094-1.4688-1.1094-3.5156,0-1.4062,0.51562-2.5938,0.51563-1.2031,1.4844-1.8438,0.96875-0.65625,2.2656-0.65625,1.75,0,2.875,1.4062v-1.1875h1.5469v8.5156q0,2.3125-0.46875,3.2656-0.46875,0.96875-1.4844,1.5156-1.0156,0.5625-2.5,0.5625-1.7656,0-2.8594-0.79688-1.0781-0.79687-1.0312-2.3906zm1.375-5.9219q0,1.9531,0.76562,2.8438,0.78125,0.89063,1.9375,0.89063,1.1406,0,1.9219-0.89063,0.78125-0.89062,0.78125-2.7812,0-1.8125-0.8125-2.7188-0.79688-0.92187-1.9219-0.92187-1.1094,0-1.8906,0.90625-0.78125,0.89062-0.78125,2.6719zm16.048,1.9375,1.7188,0.21875q-0.40625,1.5-1.5156,2.3438-1.0938,0.82813-2.8125,0.82813-2.1562,0-3.4219-1.3281-1.2656-1.3281-1.2656-3.7344,0-2.4844,1.2656-3.8594,1.2812-1.375,3.3281-1.375,1.9844,0,3.2344,1.3438t1.25,3.7969q0,0.14062-0.0156,0.4375h-7.3438q0.0937,1.625,0.92188,2.4844,0.82812,0.85938,2.0625,0.85938,0.90625,0,1.5469-0.46875,0.65625-0.48438,1.0469-1.5469zm-5.4844-2.7031,5.5,0q-0.10937-1.2344-0.625-1.8594-0.79687-0.96875-2.0781-0.96875-1.1406,0-1.9375,0.78125-0.78125,0.76563-0.85938,2.0469zm12.766,4.375,0.23437,1.4844q-0.70312,0.14063-1.2656,0.14063-0.90625,0-1.4062-0.28125-0.5-0.29688-0.70313-0.75-0.20312-0.46875-0.20312-1.9844v-5.6562h-1.2344v-1.3125h1.2344v-2.4375l1.6562-1v3.4375h1.6875v1.3125h-1.6875v5.75q0,0.71875,0.0781,0.92188,0.0937,0.20312,0.29688,0.32812,0.20312,0.125,0.57812,0.125,0.26563,0,0.73438-0.0781z"/>
 <path id="path389" fill-rule="nonzero" fill="#cc4125" d="m121.53,87.377,11.453,4.4062,0,1.6406-11.453,4.6875,0-1.7344,3.4688-1.3281,0-4.7969-3.4688-1.25,0-1.625zm4.7031,3.3125,0,3.8906,3.1719-1.2031q1.4531-0.54687,2.375-0.8125-1.0938-0.21875-2.1875-0.60937l-3.3594-1.2656zm-4.7031,8.4375,8.2969,0,0,1.2656-1.25,0q0.875,0.48437,1.1562,0.89062,0.28125,0.40625,0.28125,0.90625,0,0.70313-0.45312,1.4375l-1.2969-0.48437q0.29688-0.51563,0.29688-1.0312,0-0.45313-0.28125-0.82813-0.26563-0.35937-0.76563-0.51562-0.75-0.23438-1.6406-0.23438h-4.3438v-1.4062zm2.6719,11.016-0.17187,1.4531q-1.2812-0.34375-1.9844-1.2812-0.70312-0.92187-0.70312-2.3594,0-1.8281,1.125-2.8906t3.1406-1.0625q2.0938,0,3.25,1.0781t1.1562,2.7969q0,1.6562-1.1406,2.7031-1.125,1.0625-3.1719,1.0625-0.125,0-0.375,0v-6.1875q-1.375,0.0781-2.1094,0.76562-0.71875,0.70313-0.71875,1.7344,0,0.78125,0.40625,1.3281,0.40625,0.54688,1.2969,0.85938zm2.2812-4.6094,0,4.625q1.0469-0.0937,1.5625-0.53125,0.8125-0.67187,0.8125-1.7344,0-0.96875-0.65625-1.6406-0.64062-0.65625-1.7188-0.71875zm-3.9219,13.242q-0.67188-0.78125-0.95313-1.5-0.26562-0.71875-0.26562-1.5469,0-1.375,0.67187-2.1094,0.67188-0.73438,1.7031-0.73438,0.60937,0,1.1094,0.28125,0.51563,0.28125,0.8125,0.71875,0.3125,0.45313,0.46875,1.0156,0.10938,0.42187,0.20313,1.25,0.20312,1.7031,0.48437,2.5156,0.29688,0,0.375,0,0.85938,0,1.2031-0.39062,0.48437-0.54688,0.48437-1.6094,0-0.98437-0.35937-1.4688-0.34375-0.46875-1.2188-0.6875l0.1875-1.375q0.875,0.1875,1.4219,0.60938,0.54688,0.4375,0.82813,1.25,0.29687,0.8125,0.29687,1.875t-0.25,1.7188q-0.25,0.67187-0.625,0.98437t-0.95312,0.4375q-0.35938,0.0781-1.2969,0.0781h-1.875q-1.9688,0-2.4844,0.0781-0.51563,0.0937-1,0.35938v-1.4688q0.4375-0.21875,1.0312-0.28125zm3.1406-0.10938q-0.3125-0.76562-0.53125-2.2969-0.125-0.875-0.28125-1.2344-0.15625-0.35937-0.46875-0.5625-0.29687-0.1875-0.65625-0.1875-0.5625,0-0.9375,0.42188-0.375,0.4375-0.375,1.25t0.34375,1.4375q0.35938,0.64062,0.98438,0.9375,0.46875,0.23437,1.4062,0.23437h0.51562zm-4.1719,5.1328,8.2969-2.5469,0,1.4531-4.7812,1.3281-1.7812,0.48438q0.125,0.0312,1.7031,0.4375l4.8594,1.3125v1.4531l-4.8125,1.2344-1.5781,0.42187,1.5938,0.46875,4.7969,1.4219v1.375l-8.2969-2.5938v-1.4688l4.9688-1.3125,1.4219-0.32813-6.3906-1.6719v-1.4688zm2.6719,15.695-0.17187,1.4531q-1.2812-0.34375-1.9844-1.2812-0.70312-0.92187-0.70312-2.3594,0-1.8281,1.125-2.8906t3.1406-1.0625q2.0938,0,3.25,1.0781t1.1562,2.7969q0,1.6562-1.1406,2.7031-1.125,1.0625-3.1719,1.0625-0.125,0-0.375,0v-6.1875q-1.375,0.0781-2.1094,0.76562-0.71875,0.70313-0.71875,1.7344,0,0.78125,0.40625,1.3281,0.40625,0.54688,1.2969,0.85938zm2.2812-4.6094,0,4.625q1.0469-0.0937,1.5625-0.53125,0.8125-0.67187,0.8125-1.7344,0-0.96875-0.65625-1.6406-0.64062-0.65625-1.7188-0.71875zm4.8906,7.8359,1.6094,0,0,1.4062-1.6094,0,0-1.4062zm-9.8438,0,8.2969,0,0,1.4062-8.2969,0,0-1.4062zm-0.6875,3.2891-0.20313,1.375q-0.64062,0.0781-0.92187,0.46875-0.39063,0.53125-0.39063,1.4375,0,0.96875,0.39063,1.5,0.39062,0.53125,1.0938,0.71875,0.42187,0.10938,1.8125,0.10938-1.0938-0.92188-1.0938-2.2969,0-1.7188,1.2344-2.6562,1.2344-0.9375,2.9688-0.9375,1.1875,0,2.1875,0.42188,1,0.4375,1.5469,1.25,0.54687,0.82812,0.54687,1.9219,0,1.4688-1.1875,2.4219h1v1.2969h-7.1719q-1.9375,0-2.75-0.39062-0.8125-0.39063-1.2812-1.25-0.46875-0.85938-0.46875-2.1094,0-1.4844,0.67187-2.4062,0.67188-0.90625,2.0156-0.875zm4.9844,1.1719q-1.625,0-2.375,0.64062-0.75,0.65625-0.75,1.625t0.73438,1.625q0.75,0.65625,2.3438,0.65625,1.5312,0,2.2969-0.67187,0.78125-0.67188,0.78125-1.625,0-0.9375-0.76562-1.5938-0.76563-0.65625-2.2656-0.65625zm-4.2969,7.9922,11.453,0,0,1.4062-4.1094,0q1.1406,0.98437,1.1406,2.4844,0,0.92188-0.35937,1.5938-0.35938,0.6875-1,0.96875-0.64063,0.29688-1.8594,0.29688h-5.2656v-1.4062h5.2656q1.0469,0,1.5312-0.45313,0.48438-0.45312,0.48438-1.2969,0-0.625-0.32813-1.1719-0.32812-0.54687-0.89062-0.78125-0.54688-0.23437-1.5156-0.23437h-4.5469v-1.4062zm1.2656,11.961-1.25,0.20313q-0.125-0.59375-0.125-1.0625,0-0.76563,0.23438-1.1875,0.25-0.42188,0.64062-0.59375,0.40625-0.17188,1.6719-0.17188h4.7656v-1.0312h1.0938v1.0312h2.0625l0.84375,1.4062h-2.9062v1.4062h-1.0938v-1.4062h-4.8438q-0.60937,0-0.78125,0.0625-0.17187,0.0781-0.28125,0.25-0.0937,0.17188-0.0937,0.48438,0,0.23437,0.0625,0.60937zm1.4062,7.0547-0.17187,1.4531q-1.2812-0.34375-1.9844-1.2812-0.70312-0.92188-0.70312-2.3594,0-1.8281,1.125-2.8906t3.1406-1.0625q2.0938,0,3.25,1.0781t1.1562,2.7969q0,1.6562-1.1406,2.7031-1.125,1.0625-3.1719,1.0625-0.125,0-0.375,0v-6.1875q-1.375,0.0781-2.1094,0.76563-0.71875,0.70312-0.71875,1.7344,0,0.78125,0.40625,1.3281,0.40625,0.54687,1.2969,0.85937zm2.2812-4.6094,0,4.625q1.0469-0.0937,1.5625-0.53125,0.8125-0.67188,0.8125-1.7344,0-0.96875-0.65625-1.6406-0.64062-0.65625-1.7188-0.71875zm-4.9531,13.211,1.0469,0q-1.2344-0.78125-1.2344-2.3125,0-1,0.54687-1.8281,0.54688-0.82813,1.5312-1.2969,0.98438-0.45312,2.25-0.45312,1.25,0,2.25,0.40625,1.0156,0.42187,1.5469,1.25,0.54687,0.82812,0.54687,1.8594,0,0.75-0.3125,1.3281-0.3125,0.59375-0.82812,0.95312h4.1094v1.4062h-11.453v-1.3125zm4.1406-4.4375q-1.5938,0-2.3906,0.67188-0.78125,0.67187-0.78125,1.5781,0,0.92188,0.75,1.5625,0.76562,0.65625,2.3125,0.65625,1.7031,0,2.5-0.65625,0.79687-0.65625,0.79687-1.625,0-0.9375-0.76562-1.5625-0.76563-0.625-2.4219-0.625z"/>
 <path id="path63" stroke-linejoin="round" d="m147.72,0.93515,51.465,0,0,48.598-51.465,0z" stroke="#595959" stroke-linecap="butt" stroke-width="1"/>
 <path id="path67" stroke-linejoin="round" d="m147.72,49.552,51.465,0,0,48.598-51.465,0z" stroke="#595959" stroke-linecap="butt" stroke-width="1"/>
 <path id="path71" stroke-linejoin="round" d="m199.19,0.93515,51.465,0,0,48.598-51.465,0z" stroke="#595959" stroke-linecap="butt" stroke-width="1"/>
 <path id="path75" stroke-linejoin="round" d="m199.19,49.552,51.465,0,0,48.598-51.465,0z" stroke="#595959" stroke-linecap="butt" stroke-width="1"/>
</svg>
